<svg xmlns="http://www.w3.org/2000/svg" viewBox="0 0 654.85 464.02"><defs><style>.cls-1{fill:#b28223;}.cls-2{fill:#565655;}.cls-3{fill:#2e2e2e;}.cls-4{fill:#fff;}</style></defs><g id="レイヤー_2" data-name="レイヤー 2"><g id="地図_納品用" data-name="地図　納品用"><rect class="cls-1" x="135.97" y="0.9" width="3.5" height="3" transform="translate(106.19 136.49) rotate(-77.76)"/><path class="cls-1" d="M62.79,429.33l-2.33-1.89L64.91,422l2.33,1.89Zm8.9-10.95-2.33-1.9L73.81,411l2.33,1.89Zm8.9-11-2.33-1.89,2.58-3.18v-1.89h3v3Zm3.25-14h-3v-7.06h3Zm0-14.11h-3v-7.06h3Zm0-14.12h-3v-7.05h3Zm0-14.11h-3V344h3Zm0-14.11h-3v-7.06h3Zm0-14.12h-3v-7.06h3Zm0-14.11h-3v-7.06h3Zm0-14.12h-3v-7.05h3Zm0-14.11h-3v-7.06h3Zm0-14.11h-3v-7.06h3Zm1.1-13.68L82,252.06l1.5-6.89,2.93.64Zm3-13.79L85,238.27l1.49-6.89,2.93.63Zm3-13.79L88,224.48l1.49-6.9,2.94.64Zm3-13.8L91,210.69l1.5-6.9,2.93.64Zm3-13.79L94,196.89l1.5-6.89,2.93.63Zm3-13.79L97,183.1l1.49-6.9,2.93.64Zm3-13.8-2.93-.63,1.5-6.9,2.93.64Zm3-13.79-2.93-.63,1.5-6.9,2.93.63Zm3-13.79-2.93-.64,1.49-6.89,2.93.63Zm3-13.79-2.93-.64,1.5-6.9,2.93.64Zm3-13.8-2.93-.63,1.5-6.9,2.93.64Zm3-13.79-2.94-.64,1.5-6.89,2.93.63Zm3-13.79-2.93-.64,1.49-6.9,2.94.64Zm3-13.8-2.93-.63,1.5-6.9,2.93.64Zm3-13.79L123.91,59l1.5-6.89,2.93.63Zm3-13.79-2.93-.64,1.49-6.9,2.94.64Zm3-13.8-2.93-.63,1.5-6.9,2.93.64Zm3-13.79-2.93-.63,1.5-6.9,2.93.64Z"/><rect class="cls-1" x="54.32" y="433.72" width="3.5" height="3" transform="translate(-317.13 204.38) rotate(-50.92)"/><rect class="cls-1" x="572.78" y="451.68" width="3" height="3.5" transform="translate(29.47 941.86) rotate(-80.17)"/><path class="cls-1" d="M565.44,453.42l-6.87-1.19.51-3,6.87,1.19ZM551.71,451l-6.87-1.19.51-3,6.87,1.19ZM538,448.66l-6.86-1.19.51-3,6.87,1.18Zm-13.73-2.38-6.86-1.19.51-2.95,6.87,1.19Zm-13.73-2.38-6.86-1.19.51-2.95L511,441Zm-13.73-2.37-6.86-1.19.51-3,6.86,1.19Zm-13.73-2.38L476.19,438l.51-3,6.86,1.19Zm-13.73-2.38-6.86-1.19.51-3,6.86,1.19Zm-406.2-.1-.38-3,6.91-.88.38,3Zm13.82-1.75-.37-3,6.91-.88.38,3Zm378.65-.53-6.86-1.19.51-2.95,6.86,1.19ZM90.77,433.16l-.38-3,6.91-.88.38,3ZM441.86,432,435,430.82l.52-2.95,6.86,1.19Zm-337.27-.6-.37-3,6.91-.87.38,3Zm13.83-1.75-.38-3,6.91-.88.38,3Zm309.71,0-6.87-1.18.52-3,6.86,1.19ZM132.24,427.9l-.38-3,6.92-.88.37,3Zm282.16-.64-6.87-1.19.51-3,6.87,1.19Zm-268.33-1.11-.38-3,6.91-.88.38,3Zm254.6-1.27-6.87-1.19.51-3,6.87,1.19Zm-240.78-.48-.38-3,6.92-.87.37,3Zm13.83-1.75-.38-3,6.91-.88.38,3Zm213.22-.15-6.87-1.19.51-2.95,6.87,1.19Zm-199.4-1.61-.38-3,6.91-.88.38,3Zm185.67-.77-6.87-1.19.51-2.95,6.87,1.19Zm-171.85-1-.37-3,6.91-.87.38,3Zm158.12-1.4-6.87-1.19.51-2.95,6.87,1.19Zm-144.29-.35-.38-3,6.91-.87.38,3ZM229,415.64l-.37-3,6.91-.88.38,3Zm116.73-.27-6.86-1.19.51-3,6.87,1.19Zm-102.9-1.49-.38-3,6.91-.88.38,3ZM332,413l-6.86-1.19.51-3,6.87,1.19Zm-75.35-.86-.38-3,6.92-.87.37,3Zm61.62-1.52-6.86-1.19.51-2.95,6.87,1.18Zm-47.79-.23-.38-3,6.91-.88.38,3Zm13.82-1.76-.38-3,6.92-.88.37,3Zm20.24-.39L297.69,407l.51-3,6.86,1.19Z"/><rect class="cls-1" x="52.53" y="434.78" width="3.5" height="3" transform="translate(-54.38 10.28) rotate(-7.22)"/><polygon class="cls-2" points="145.45 390.27 144.77 390.26 47.44 388.39 47.54 383.39 144.18 385.25 228.22 337.63 228.48 337.55 422.69 279.1 581.36 374.37 578.78 378.65 422.02 284.52 230.19 342.26 145.45 390.27"/><path class="cls-1" d="M147.94,396.26h-.48l0-1h.2l1.33-.75.49.87Zm-2.48,0-2,0,0-1,2,0Zm-4-.08-2,0v-1l2,0Zm-4-.07-2,0v-1l2,0Zm-4-.08-2,0,0-1,2,0Zm-4-.07-2,0,0-1,2,0Zm-4-.07-2,0,0-1,2,0Zm-4-.08-2,0,0-1,2,0Zm-4-.08-2,0,0-1,2,0Zm-4-.07-2,0,0-1,2,0Zm-4-.07-2,0,0-1,2,0Zm-4-.08-2,0,0-1,2,0Zm-4-.07-2,0,0-1,2,0Zm-4-.08-2,0,0-1,2,0Zm-4-.07-2,0,0-1,2,0Zm-4-.08-2,0,0-1,2,0Zm-4-.07-2,0,0-1,2,0Zm-4-.08-2,0v-1l2,0Zm-4-.07-2,0v-1l2,0Zm-4-.08-2,0,0-1,2,0Zm-4-.07-2,0,0-1,2,0Zm-4-.08-2,0,0-1,2,0Zm-4-.07-2,0,0-1,2,0Zm-4-.08-2,0,0-1,2,0Zm-4-.07-2,0,0-1,2,0Zm-4-.08-2,0,0-1,2,0Zm101.76,0-.49-.87,1.74-1,.49.87Zm3.48-2-.49-.87,1.74-1,.49.87Zm3.48-2-.5-.87,1.74-1,.5.87Zm3.48-2-.5-.87,1.74-1,.5.87Zm3.48-2-.5-.87,1.74-1,.49.87Zm412-1.55-1.38-.83.52-.86,1.38.83Zm-408.57-.43-.49-.87,1.74-1,.49.86Zm405.48-1.44-1.71-1,.52-.85,1.71,1Zm-402-.53-.49-.87,1.74-1,.49.87ZM570.69,381,569,380l.52-.85,1.71,1Zm-395.1-.44-.49-.87,1.74-1,.49.87Zm391.68-1.63-1.71-1,.51-.85,1.72,1Zm-388.2-.34-.5-.87,1.74-1,.5.87Zm384.78-1.73-1.71-1,.51-.86,1.71,1Zm-381.3-.25-.5-.87,1.74-1,.5.87Zm377.87-1.83-1.71-1,.52-.86,1.71,1ZM186,374.64l-.5-.87,1.74-1,.49.87Zm371-1.93-1.71-1,.52-.86,1.71,1Zm-367.5,0-.49-.87,1.74-1,.49.87Zm3.48-2-.49-.87,1.74-1,.49.87Zm360.6-.05-1.71-1,.52-.86,1.71,1Zm-357.12-1.93-.49-.87,1.74-1,.49.87Zm353.7-.14-1.71-1,.52-.85,1.71,1Zm-350.22-1.83-.5-.87,1.74-1,.5.87Zm346.8-.24-1.71-1,.51-.85,1.71,1Zm-343.32-1.74-.5-.87,1.74-1,.5.87Zm339.9-.33-1.72-1,.52-.85,1.71,1ZM206.9,362.78l-.5-.86,1.74-1,.49.87Zm333-.42-1.71-1,.52-.85,1.71,1Zm-329.52-1.55-.49-.87,1.74-1,.49.87Zm326.1-.53-1.71-1,.52-.86,1.71,1Zm-322.62-1.45-.49-.86,1.74-1,.49.87Zm319.2-.62-1.71-1,.52-.86,1.71,1Zm-315.72-1.35-.49-.87,1.73-1,.5.87Zm312.3-.72-1.71-1,.51-.86,1.72,1Zm-308.82-1.26-.5-.86,1.74-1,.5.87Zm305.4-.81-1.72-1,.52-.85,1.71,1Zm-301.92-1.16-.5-.87,1.74-1,.5.87ZM522.78,352l-1.71-1,.52-.85,1.71,1Zm-295-1.07-.49-.87,1.74-1,.49.87Zm291.6-1-1.71-1,.52-.85,1.71,1Zm-288.12-1-.49-.87,1.12-.63.79-.24.29,1-.73.22Zm284.7-1.1-1.71-1,.52-.85,1.71,1Zm-281.07-.26-.3-1,1.92-.58.29.95Zm3.82-1.17-.29-1,1.91-.58.29.95Zm273.83-.64-1.71-1,.51-.86,1.72,1Zm-270-.53-.3-1,1.92-.58.29,1Zm3.82-1.17-.29-1,1.91-.58.3,1Zm262.76-.38-1.71-1,.51-.86,1.71,1Zm-258.93-.79-.29-.95,1.91-.59.29,1Zm3.82-1.17-.29-.95,1.91-.59.3,1Zm251.68-.11-1.71-1,.52-.86,1.71,1Zm-247.85-1.05-.29-1,1.91-.58.29.95Zm244.43-1-1.71-1,.52-.86,1.71,1Zm-240.61-.15-.29-1,1.92-.58.29.95Zm3.83-1.17-.29-1,1.91-.58.29,1Zm233.36-.75-1.71-1,.52-.85,1.71,1Zm-229.53-.42-.3-1,1.92-.58.29,1Zm3.82-1.17-.29-1,1.91-.59.29,1Zm222.29-.48-1.71-1,.52-.85,1.71,1ZM277,334.74l-.3-.95,1.92-.59.29,1Zm3.82-1.16-.29-1,1.91-.59.29,1ZM492,333.36l-1.71-1,.51-.85,1.71,1Zm-207.39-.95-.29-1,1.91-.58.29.95Zm204-1.12-1.72-1,.52-.86,1.71,1Zm-200.15-.05-.29-1,1.91-.58.3.95Zm3.83-1.17-.29-1,1.91-.58.29,1Zm192.89-.86-1.71-1,.52-.86,1.71,1Zm-189.07-.31-.29-1,1.92-.58.29,1Zm3.83-1.17-.29-1,1.91-.59.29,1Zm181.82-.59-1.71-1,.52-.86,1.71,1Zm-178-.57-.3-1,1.92-.59.29,1Zm3.82-1.17-.29-1,1.91-.58.29.95Zm170.75-.33-1.71-1,.52-.86,1.71,1Zm-166.92-.84-.3-1,1.92-.58.29.95Zm3.82-1.17-.29-1,1.91-.58.29,1ZM474.88,323l-1.71-1,.51-.85,1.72,1ZM319,321.89l-.29-.95,1.91-.59.29,1Zm152.43-1-1.72-1,.52-.85,1.71,1Zm-148.61-.21-.29-1,1.91-.59.3,1Zm3.83-1.16-.29-1,1.91-.59.29,1Zm141.35-.7-1.71-1,.52-.85,1.71,1Zm-137.53-.47-.29-1,1.92-.58.29.95Zm3.83-1.17-.29-1,1.91-.58.29.95Zm130.28-.43-1.71-1,.52-.85,1.71,1Zm-126.45-.74-.3-1,1.92-.58.29,1Zm3.82-1.17-.29-1,1.91-.58.29,1Zm119.21-.17-1.71-1,.52-.86,1.71,1Zm-115.38-1-.3-.95,1.92-.59.29,1Zm112-1.07-1.71-1,.51-.86,1.72,1Zm-108.14-.1-.29-1,1.91-.59.29,1Zm3.83-1.16-.3-1,1.92-.59.29,1Zm100.89-.81-1.71-1,.51-.86,1.71,1Zm-97.07-.36-.29-1,1.91-.58.3.95Zm3.83-1.17-.29-1,1.91-.58.29,1Zm89.81-.54-1.71-1,.52-.85,1.71,1Zm-86-.63-.29-1,1.91-.58.3,1Zm3.83-1.17-.29-.95,1.91-.59.29,1Zm78.74-.27-1.71-1,.52-.85,1.71,1Zm-74.92-.9-.29-.95,1.92-.59.29,1Zm3.83-1.16-.29-1,1.91-.59.29,1Zm67.67,0-1.71-1,.52-.85,1.71,1Zm-63.84-1.16-.3-1,1.92-.58.29.95Zm60.42-.91-1.71-1,.51-.85,1.72,1Zm-56.6-.26-.29-1,1.91-.58.3.95Zm3.83-1.17-.29-1,1.91-.58.29,1Zm49.35-.65-1.71-1,.51-.86,1.71,1Zm-45.53-.52-.29-1,1.91-.58.3,1Zm3.83-1.17-.29-.95,1.91-.59.29,1Zm38.27-.38-1.71-1,.52-.86,1.71,1Zm-34.45-.79-.29-1,1.91-.59.3,1Zm3.83-1.16-.29-1,1.91-.58.29,1Zm27.2-.12-1.71-1,.52-.86,1.71,1ZM407,295l-.29-1,1.92-.58.29.95Zm20-1-1.71-1,.52-.86,1.71,1Zm-16.13-.15-.29-1,1.91-.58.29,1Zm3.83-1.17-.3-.95,1.92-.59.29,1Zm8.88-.75-1.71-1,.52-.85,1.71,1Zm-5.06-.42-.29-.95,1.91-.59.29,1Z"/><polygon class="cls-2" points="137.59 438.04 99.3 339.79 93.22 246.06 93.37 245.6 157.38 49.54 143.54 1.38 148.34 0 162.61 49.64 162.38 50.37 98.27 246.69 104.24 338.7 142.25 436.23 137.59 438.04"/><path class="cls-1" d="M146,435.58l-.73-1.86.93-.37.73,1.87Zm-1.46-3.73-.72-1.86.93-.36.73,1.86Zm-1.45-3.72-.73-1.87.94-.36.72,1.86Zm-1.45-3.73-.73-1.86.93-.37.73,1.87Zm-1.45-3.73-.73-1.86.93-.37.73,1.87Zm-1.46-3.73-.72-1.86.93-.36.72,1.86Zm-1.45-3.72-.73-1.87.94-.36.72,1.86Zm-1.45-3.73-.73-1.86.93-.37.73,1.87Zm-1.45-3.73-.73-1.86.93-.36.73,1.86ZM132.91,402l-.72-1.87.93-.36.72,1.86Zm-1.45-3.73-.73-1.86.94-.37.72,1.87ZM130,394.58l-.73-1.86.93-.36.73,1.86Zm-1.45-3.72-.73-1.87.93-.36.73,1.86Zm-1.46-3.73-.72-1.86.93-.37.72,1.87Zm-1.45-3.73-.73-1.86.94-.36.72,1.86Zm-1.45-3.72-.73-1.87.93-.36.73,1.86ZM122.75,376l-.73-1.86.93-.37.73,1.87Zm-1.46-3.73-.72-1.86.93-.37.72,1.87Zm-1.45-3.73-.73-1.86.94-.36.72,1.86Zm-1.45-3.72-.73-1.87.93-.36.73,1.86ZM116.93,361l-.72-1.86.93-.37.73,1.87Zm-1.45-3.73-.72-1.86.93-.36.72,1.86ZM114,353.59l-.73-1.87.94-.36.72,1.86Zm-1.45-3.73-.73-1.86.93-.37.73,1.87Zm-1.46-3.73-.72-1.86.93-.36.73,1.86Zm-1.45-3.72-.72-1.87.93-.36.72,1.86Zm-1.24-3.93-.13-2,1-.06.13,2Zm-.26-4-.13-2,1-.06.13,2Zm-.26-4-.13-2,1-.07.13,2Zm-.26-4-.13-2,1-.07.13,2Zm-.26-4-.13-2,1-.06.13,2Zm-.26-4-.13-2,1-.06.13,2Zm-.26-4-.13-2,1-.06.13,2Zm-.26-4-.13-2,1-.06.13,2Zm-.26-4-.13-2,1-.07.13,2Zm-.25-4-.13-2,1-.07.13,2Zm-.26-4-.13-2,1-.06.13,2Zm-.26-4-.13-2,1-.06.13,2Zm-.26-4-.13-2,1-.06.13,2Zm-.26-4-.13-2,1-.06.13,2Zm-.26-4-.13-2,1-.07.13,2Zm-.26-4-.13-2,1-.07.13,2Zm-.26-4-.13-2,1-.06.13,2Zm-.26-4-.13-2,1-.06.13,2Zm-.26-4-.12-2,1-.06.13,2Zm-.25-4-.13-2,1-.06.13,2Zm-.26-4-.13-2,1-.07.13,2Zm-.26-4-.13-2,1-.07.13,2Zm-.26-4-.13-2,1-.07.13,2Zm-.26-4,0-.36.57-1.74,1,.31-.51,1.56v.16Zm2.12-3.69-1-.31.62-1.9.95.31Zm1.24-3.8-1-.32.62-1.9,1,.31Zm1.24-3.81-.95-.31.62-1.9,1,.31Zm1.24-3.8-1-.31.62-1.9,1,.31Zm1.24-3.8-1-.31.62-1.9,1,.31Zm1.25-3.8-1-.31.63-1.91,1,.31Zm1.24-3.81-1-.31.62-1.9,1,.31Zm1.24-3.8-1-.31.62-1.9,1,.31Zm1.24-3.8-1-.31.62-1.9,1,.31Zm1.24-3.8-1-.31.62-1.91.95.31ZM117,205l-1-.31.62-1.9,1,.31Zm1.25-3.8-1-.31.63-1.9,1,.31Zm1.24-3.8-.95-.31.62-1.9,1,.31Zm1.24-3.8-1-.31.62-1.91.95.32Zm1.24-3.81-1-.31.62-1.9,1,.31Zm1.24-3.8-.95-.31.62-1.9,1,.31Zm1.24-3.8-1-.31.62-1.9.95.31Zm1.24-3.8-1-.31.62-1.91,1,.32Zm1.25-3.81-1-.31.62-1.9,1,.31Zm1.24-3.8-1-.31.62-1.9,1,.31Zm1.24-3.8-.95-.31.62-1.9.95.31Zm1.24-3.8-.95-.31.62-1.9.95.31Zm1.24-3.81-1-.31.62-1.9,1,.31Zm1.24-3.8-.95-.31.62-1.9.95.31Zm1.25-3.8-.95-.31.62-1.9.95.31Zm1.24-3.8-.95-.31.62-1.9.95.31Zm1.24-3.81-1-.31.62-1.9,1,.31Zm1.24-3.8-1-.31.62-1.9.95.31Zm1.24-3.8-.95-.31.62-1.9.95.31Zm1.24-3.8-1-.31.62-1.9,1,.31Zm1.25-3.8-1-.32.63-1.9,1,.31Zm1.24-3.81-1-.31.62-1.9.95.31Zm1.24-3.8-.95-.31.62-1.9.95.31Zm1.24-3.8-.95-.31.62-1.9,1,.31Zm1.24-3.8-1-.32.62-1.9.95.31Zm1.24-3.81-.95-.31.62-1.9.95.31Zm1.24-3.8-.95-.31.63-1.9.95.31Zm1.25-3.8-.95-.31.62-1.9,1,.31Zm1.24-3.8-1-.31.62-1.91.95.31ZM153,94.68l-.95-.31.62-1.9.95.31Zm1.24-3.8-.95-.31.62-1.9,1,.31Zm1.24-3.8-1-.31.62-1.9,1,.31Zm1.24-3.8-.95-.31.62-1.91,1,.32ZM158,79.47l-.95-.31.62-1.9.95.31Zm1.24-3.8-.95-.31.62-1.9,1,.31Zm1.24-3.8-1-.31.62-1.9,1,.31Zm1.24-3.8-.95-.31.62-1.91.95.32Zm1.24-3.81L162,64l.62-1.9.95.31Zm1.24-3.8-1-.31.62-1.9,1,.31Zm1.25-3.8-1-.31.62-1.9,1,.31Zm1.24-3.8-.95-.31.62-1.9.95.31ZM166.53,49,166,47.1l1-.27.54,1.92Zm-1.08-3.86-.54-1.92,1-.27.54,1.92Zm-1.09-3.85-.54-1.92,1-.27.55,1.92Zm-1.08-3.85-.54-1.92,1-.27.54,1.92Zm-1.08-3.85-.54-1.92,1-.27.54,1.92Zm-1.09-3.85-.54-1.92,1-.27.54,1.92ZM160,25.92,159.49,24l1-.27.54,1.92ZM159,22.07l-.54-1.92,1-.27.54,1.92Zm-1.09-3.85-.54-1.92,1-.27.54,1.92Zm-1.08-3.85-.54-1.92,1-.28.54,1.93Zm-1.08-3.85-.54-1.93,1-.27.54,1.93Zm-1.08-3.85-.55-1.93,1-.27.54,1.93Zm-1.09-3.85L153,.89l1-.27.55,1.93Z"/><polygon class="cls-2" points="427.06 155.16 295.59 152.53 104.2 120.19 45.73 62.54 49.25 58.98 106.59 115.52 296.06 147.54 427.16 150.16 427.06 155.16"/><path class="cls-1" d="M512.13,456.51l-.87-.49,1-1.74.87.49Zm2-3.48-.87-.49,1-1.74.88.49Zm2-3.49-.87-.49,1-1.74.87.49Zm2-3.48-.87-.49,1-1.75.87.49Zm2-3.49-.87-.49,1-1.74.88.49Zm2-3.48-.87-.49,1-1.75.87.5Zm2-3.49-.87-.49,1-1.74.87.49Zm2-3.48-.87-.49,1-1.75.88.49Zm2-3.49-.87-.49,1-1.74.87.49Zm2-3.48-.87-.49,1-1.75.87.49Zm2-3.49-.87-.49,1-1.74.87.49Zm2-3.48-.88-.49,1-1.75.87.49Zm2-3.49-.87-.49,1-1.74.87.49Zm2-3.48-.87-.49,1-1.75.87.49Zm2-3.49-.87-.49,1-1.74.87.49Zm2-3.48-.87-.49,1-1.75.87.49Zm2-3.49-.87-.49,1-1.74.87.49Zm2-3.48-.87-.49,1-1.75.88.49Zm2-3.49-.87-.49,1-1.74.87.49Zm2-3.48-.87-.49,1-1.75.87.49Zm2-3.49-.87-.49,1-1.74.87.49Zm2-3.49-.87-.49,1-1.74.87.49Zm2-3.48-.87-.49,1-1.74.87.49Zm2-3.49-.87-.49,1-1.74.87.49Zm2-3.48-.88-.49,1-1.74.87.49Zm2-3.49-.87-.49,1-1.74.87.49Zm2-3.48-.87-.49,1-1.74.87.49Zm2-3.49-.88-.49,1-1.74.87.49Zm2-3.48-.87-.49,1-1.74.87.49Zm2-3.49-.87-.49,1-1.74.87.49Zm2-3.48-.87-.49,1-1.74.88.49Zm2-3.49-.87-.49,1-1.74.87.49Zm2-3.48-.87-.49,1-1.74.87.49Zm2-3.49L576,341l1-1.74.88.49Zm2-3.48-.87-.49,1-1.74.87.49Zm2-3.49L580,334l1-1.74.87.49Zm2-3.48-.87-.49,1-1.75.87.5Zm2-3.49-.87-.49,1-1.74.87.49Zm2-3.48-.87-.49,1-1.74.87.49Z"/><polygon class="cls-2" points="245.61 335.51 180.97 213.73 115.87 183.81 117.96 179.27 184.6 209.89 250.02 333.17 245.61 335.51"/><polygon class="cls-2" points="118.23 379.7 116.47 378.75 193.27 236.92 193.71 236.82 312.2 209.63 312.65 211.57 194.6 238.67 118.23 379.7"/><polygon class="cls-2" points="424.86 281.81 419.86 281.81 419.86 247.42 402.81 193.04 415.45 133.05 420.35 134.08 407.97 192.8 424.86 246.66 424.86 281.81"/><polygon class="cls-2" points="446.59 421.87 444.65 421.38 455.93 377.29 456.01 377.15 491.19 323.1 492.86 324.19 457.78 378.1 446.59 421.87"/><rect class="cls-2" x="160.09" y="173.61" width="83.68" height="2" transform="translate(-45.72 274.28) rotate(-62.77)"/><rect class="cls-2" x="521.69" y="432.23" width="5" height="32.71" transform="translate(-153.59 319.68) rotate(-29.79)"/><rect class="cls-2" x="303.64" y="218.3" width="4.36" height="4.36" transform="translate(451.26 -127.35) rotate(76.9)"/><path class="cls-2" d="M303.82,223.69l-1.22-5.21,5.22-1.22,1.22,5.22Zm0-4.47.77,3.27,3.27-.76-.77-3.27Z"/><rect class="cls-3" x="284.06" y="217.14" width="9.83" height="9.83" transform="translate(439.77 -109.72) rotate(76.9)"/><rect class="cls-1" x="91.2" y="167.24" width="9.28" height="57.18" transform="translate(42.95 -15.68) rotate(12.04)"/><rect class="cls-1" x="443.72" y="402.53" width="9.28" height="57.18" transform="translate(948.15 60.85) rotate(99.59)"/><rect class="cls-1" x="549.06" y="373.92" width="6" height="21.76" transform="translate(837.75 994.07) rotate(-150)"/><rect class="cls-1" x="184.11" y="362.45" width="6" height="21.76" transform="translate(416.87 24.62) rotate(60)"/><path class="cls-1" d="M416.16,451.77s2.29,0,2.31-3.48-2.31-3.47-2.31-3.47H406.05v8s0,.64-2.52.63-2.53-.63-2.53-.63v-3.37h-2.53v4.18s0,2.13,5.06,2.14,5.05-2.24,5.05-2.24v-6.18h6.74s.6,0,.63,1-.63,1.05-.63,1.05h-5.06l5.06,6.32h3.15l-3.15-4Z"/><path class="cls-3" d="M425.75,445.68v.53a25.58,25.58,0,0,1-.42,5.63,6.89,6.89,0,0,1-1.9,3.46s-.17-.08-.15-.12a8.93,8.93,0,0,0,1.1-3.19,30,30,0,0,0,.25-4.66c0-1.46,0-1.92-.06-2.56.63.28.73.33,1.36.64h6.54c.59-.64.68-.72.78-.72s.23.08.83.51c.27.2.35.27.35.37s-.05.12-.18.12h-3.69a7.44,7.44,0,0,1-1.2,1.64H432c.44-.47.53-.54.63-.54s.21.07.63.43c.19.17.27.26.27.35s0,.16-.35.36v.51c0,1.32.05,2.21.05,2.51s-.21.51-.65.51-.51-.11-.51-.46h-1.51v1.27c0,1.63,0,1.92,0,2.14a.87.87,0,0,1-.48.92,1.79,1.79,0,0,1-.91.24c-.22,0-.24-.05-.31-.47s-.44-.58-1.24-.78c-.06,0-.06-.15,0-.15.65.05,1.14.08,1.62.08.13,0,.17-.05.17-.18V451h-1.6c0,.33-.2.47-.63.47s-.51-.08-.51-.44.05-.58.05-1.75c0-.84,0-1.68-.05-2.54a8.29,8.29,0,0,1,1.26.59H429a9.18,9.18,0,0,0,.2-1.65Zm2.25,7.15a7.08,7.08,0,0,1-2.79,2.26s-.16-.08-.11-.12a7.63,7.63,0,0,0,1.61-2.11,4.94,4.94,0,0,0,.41-1c1.18.46,1.45.59,1.45.75S428.43,452.78,428,452.83Zm4.07-5.22h-4.23V449h4.23Zm-4.23,3.12h4.23v-1.5h-4.23Zm5.54,4.18c-.32,0-.36,0-.78-1.08a4.61,4.61,0,0,0-1.23-1.68c-.05,0,0-.15.08-.13,1.86.79,2.56,1.39,2.56,2.18A.66.66,0,0,1,433.38,454.91Z"/><path class="cls-3" d="M437.05,450.48a9,9,0,0,1-1.48,1.17c-.05,0-.17-.07-.12-.12a9.5,9.5,0,0,0,2.11-3.37,6.51,6.51,0,0,0,.34-1.31c1.33.49,1.47.57,1.47.71s-.06.18-.5.28a9.62,9.62,0,0,1-1.15,1.89c.62.11.72.16.72.28s-.07.17-.34.28v4.85c0,.35-.2.5-.61.5s-.53-.12-.53-.45.09-1.26.09-3.16Zm3.31-4.42v-.85c0-.17,0-.41,0-.68,1.45.13,1.57.26,1.57.38s-.12.2-.36.28v.87h3.07c.45-.47.54-.54.64-.54s.22.07.9.63c.31.26.38.34.38.44s-.2.22-.5.22a1,1,0,0,0-.64.13c-.19.08-.42.18-.75.3-.06,0-.11,0-.08-.08a5.09,5.09,0,0,0,.19-.82h-7.6c.05,1-.31,1.66-.92,1.66a.56.56,0,0,1-.57-.61.59.59,0,0,1,.45-.62,1.22,1.22,0,0,0,.79-1.25c0-.06.12-.07.13,0a3.76,3.76,0,0,1,.1.55Zm2.85,2a7.1,7.1,0,0,1-1.08,1.63H444c.43-.47.53-.54.62-.54s.22.07.66.43c.19.17.26.26.26.35s0,.16-.33.37v.77c0,2,.05,3.41.05,3.86s-.21.52-.64.52-.49-.13-.49-.47v-.23h-3.38v.27c0,.36-.18.48-.64.48s-.49-.12-.49-.36c0-.65.06-1.3.06-3.89,0-.71,0-1.43-.06-2.15a7.16,7.16,0,0,1,1.22.59h.83a8.94,8.94,0,0,0,.18-1.63h-1.74a3.1,3.1,0,0,0-.63.07l-.14-.44a3.39,3.39,0,0,0,.78.09h4c.5-.55.65-.64.73-.64s.24.09.67.45c.19.16.29.27.29.35s0,.12-.16.12Zm1,1.91h-3.38V452h3.38Zm0,2.23h-3.38v2.28h3.38Z"/><path class="cls-3" d="M448.33,453.08c0,.79-.22,1.39-.66,1.39-.22,0-.37-.2-.37-.49a.63.63,0,0,1,.22-.53,1.93,1.93,0,0,0,.56-1.39c0-.06.13-.06.14,0A5.38,5.38,0,0,1,448.33,453.08ZM449,451c0,.25-.18.38-.56.38s-.45-.1-.45-.32c0-.4.05-1.15.05-4.19,0-.79,0-1-.07-2a6.6,6.6,0,0,1,1.13.56h2.13c.46-.6.55-.68.65-.68s.21.08.65.47c.19.17.26.27.26.36s-.05.12-.18.12h-1.74v1.43h.35c.27-.48.42-.58.5-.58s.22.1.53.41c.12.12.22.24.22.32s0,.12-.16.12h-1.44v1.46h.29c.33-.48.48-.58.56-.58s.21.1.52.41a.65.65,0,0,1,.2.32c0,.09,0,.12-.16.12h-1.41v1.54h.43c.33-.46.42-.53.52-.53s.21.07.61.43c.17.14.24.24.24.34s0,.13-.32.33a11.24,11.24,0,0,1-.52,3.36,1.45,1.45,0,0,1-.56.66,1.42,1.42,0,0,1-.77.23c-.21,0-.27-.06-.3-.29-.1-.46-.17-.5-1-.83-.06,0,0-.14,0-.14.6.06,1,.09,1.26.09s.47-.12.59-.7a13,13,0,0,0,.27-2.68H449Zm-.06,2.84c-.2,0-.23,0-.23-.52a4,4,0,0,0-.14-1.3c0-.06.07-.11.11-.06a2,2,0,0,1,.68,1.28C449.36,453.58,449.15,453.87,448.94,453.87Zm1-6.74V445.7H449v1.43Zm0,1.73V447.4H449v1.46Zm0,1.81v-1.54H449v1.54Zm0,2.78c-.15,0-.18-.07-.24-.41a3,3,0,0,0-.43-1.17c0-.05,0-.12.08-.09.67.42,1,.77,1,1.13S450.11,453.45,449.9,453.45Zm.89-.61c-.14,0-.21-.07-.28-.29a2.19,2.19,0,0,0-.65-.92.06.06,0,0,1,.06-.1c.76.13,1.17.43,1.17.86C451.09,452.65,451,452.84,450.79,452.84Zm4.78-3.47a7.19,7.19,0,0,0,1,2.75,6.21,6.21,0,0,0,2.27,2.07c.05,0,.05.1,0,.11-.42.11-.62.36-.83.91-.06.15-.11.18-.19.18s-.18-.09-.34-.25A6.72,6.72,0,0,1,456,453a12,12,0,0,1-.77-3.61h-1a12.69,12.69,0,0,1-.34,2.9,6.23,6.23,0,0,1-2.05,3.35c-.05,0-.14-.05-.11-.1a8.31,8.31,0,0,0,1.12-2.74,22.27,22.27,0,0,0,.32-4.64c0-1.58,0-2.43-.07-3.27a13.68,13.68,0,0,1,1.27.64h2.33c.39-.43.49-.5.58-.5s.22.07.64.43c.18.16.25.25.25.35s-.07.19-.31.36c0,2.24.06,2.68.06,3.43,0,.34-.22.49-.68.49s-.47-.1-.47-.39v-.31Zm1.25-3.58h-2.51v.42c0,1.21,0,2.13,0,2.89h2.54Z"/><path class="cls-1" d="M202.41,381.93c-2,.5-4.53,2.32-6.41,4-1.88-1.68-4.43-3.5-6.41-4-3-.77-4,1.38-3.43,5a23.06,23.06,0,0,0,2.5,7l3.55-.9.15,0c-2.3-3.18-4.15-7.35-2.44-8.31,1.14-.64,3.42.7,5.13,2.2a12.9,12.9,0,0,0-1.28,1.45c-1.26,1.75-1.69,3.69.17,4.39A7.49,7.49,0,0,0,196,393a7.63,7.63,0,0,0,2.07-.32c1.85-.7,1.43-2.64.16-4.39a12,12,0,0,0-1.28-1.45c1.71-1.5,4-2.84,5.13-2.2,1.71,1-.13,5.13-2.44,8.31l.16,0,3.55.9a23.37,23.37,0,0,0,2.5-7C206.42,383.31,205.43,381.16,202.41,381.93Z"/><path class="cls-3" d="M214.6,385c0,4.13.05,7,.05,7.89,0,.36-.23.54-.76.54-.38,0-.54-.13-.54-.43s0-1.26.05-2.67a15.53,15.53,0,0,1-2.33,1.5c0,.3-.1.4-.22.4s-.24-.13-.75-1.39c.23,0,.48-.08.72-.13a17.37,17.37,0,0,0,2.59-.86l0-3.4h-2.12a4.43,4.43,0,0,0-.81.09l-.13-.45a5.79,5.79,0,0,0,.94.09h2.12v-1a13.8,13.8,0,0,0-.1-2.42c1.48.12,1.66.17,1.66.36s-.09.19-.41.33Zm2.69,2.29a10.21,10.21,0,0,0,1.58-1.57,5.34,5.34,0,0,0,.67-1c1,.59,1.33.89,1.33,1.06s-.11.22-.57.16a11.92,11.92,0,0,1-3,1.84v3.89c0,.47.12.51,1.32.51.63,0,.83,0,1.1-.19s.47-.65.83-1.82c0-.06.15,0,.15,0,0,.49-.09,1.2-.09,1.47a.24.24,0,0,0,.15.26c.27.13.36.23.36.44,0,.36-.25.59-.84.71a7.73,7.73,0,0,1-1.71.13c-2.07,0-2.45-.19-2.45-1.34,0-.23,0-.46,0-1.37,0-2.55,0-5.12-.05-7.69,1.43.15,1.55.18,1.55.38s-.1.21-.36.33Z"/><path class="cls-3" d="M225.82,386.56a5.39,5.39,0,0,0,.58-1.18c-.77.08-1.61.17-2.52.24-.09.26-.18.38-.3.38s-.16,0-.48-1.5a18.2,18.2,0,0,0,2.22.12,6.74,6.74,0,0,0,.52-1.17,7,7,0,0,0,.26-1.08c1.25.4,1.49.5,1.49.65s-.14.27-.45.24a9.51,9.51,0,0,1-1.39,1.38h.54c1.59,0,3,0,3.93-.09a5.73,5.73,0,0,0-1.32-1.07c-.05,0,0-.12.09-.1,2,.42,2.85.88,2.85,1.63a.63.63,0,0,1-.61.68c-.3,0-.32,0-.68-.68a2.14,2.14,0,0,0-.13-.19c-1.18.2-2.37.39-3.57.51.73.21,1.12.37,1.12.52s-.11.22-.51.26c-.09.16-.19.3-.29.45h4c.63-.68.78-.77.86-.77s.24.09.82.52c.26.22.36.32.36.4s0,.12-.16.12h-4.23a4.93,4.93,0,0,0,1.94,1.22,9.32,9.32,0,0,0,2.65.58c.06,0,0,.14,0,.16-.42.13-.48.22-.68.86-.07.23-.09.26-.2.26a2.1,2.1,0,0,1-.54-.13,7,7,0,0,1-1.22-.61,6,6,0,0,1-2.27-2.34H227a8.91,8.91,0,0,1-4.87,3.05c-.06,0-.11-.14-.06-.16a10.13,10.13,0,0,0,3.59-2.89h-2.22a8,8,0,0,0-1,.07l-.13-.44a6.55,6.55,0,0,0,1.08.1Zm5.16,4.58a14.63,14.63,0,0,1-7.81,2.38c-.06,0-.1-.15,0-.17a17,17,0,0,0,5.78-2.14,5.07,5.07,0,0,0,1.42-1.3c1,.77,1.2.91,1.2,1S231.43,391.2,231,391.14Zm-2.83-2.63a9,9,0,0,1-4.82,2c-.06,0-.12-.11-.06-.13a11.35,11.35,0,0,0,3.47-2,4.21,4.21,0,0,0,.76-.88c.84.54,1.09.74,1.09.89S228.48,388.55,228.15,388.51Zm1.23,1.4a11.3,11.3,0,0,1-6,2c-.06,0-.1-.14,0-.16a14.85,14.85,0,0,0,4.55-2,4.37,4.37,0,0,0,1-.94c.9.67,1,.78,1,.95S229.77,390,229.38,389.91Z"/><path class="cls-3" d="M236.93,390.94a1.8,1.8,0,0,0,1.14,1,10,10,0,0,0,2.72.28,37.23,37.23,0,0,0,4.61-.3c.06,0,.06.11,0,.13a.75.75,0,0,0-.47.67c0,.37-.06.41-.28.43a29.11,29.11,0,0,1-2.93.11c-2,0-3.21-.15-4-.67a2.85,2.85,0,0,1-1.15-1.72,8.75,8.75,0,0,1-1.38,1.8c0,.48,0,.55-.21.55s-.44-.43-.88-1.46a5.71,5.71,0,0,0,.92-.33,5.58,5.58,0,0,0,.77-.45v-3.2H235a2.12,2.12,0,0,0-.66.1l-.13-.48a3,3,0,0,0,.79.1h.76c.42-.48.51-.55.61-.55s.21.07.66.42c.2.17.27.25.27.35s0,.12-.36.38Zm-.72-5.81c-.27,0-.42-.15-.58-.75a3.65,3.65,0,0,0-.77-1.4c-.05-.05,0-.12.09-.11,1.41.35,1.92.93,1.92,1.54A.65.65,0,0,1,236.21,385.13Zm5.65-.43a9,9,0,0,1-1.22,1.32h2.13c.37-.47.47-.54.57-.54s.21.07.63.42c.19.16.27.25.27.34s-.08.21-.32.37v.75c0,2,0,3.36,0,3.8s-.2.52-.63.52-.5-.14-.5-.44v-.09h-3.51v.11c0,.31-.18.45-.6.45s-.49-.13-.49-.42c0-.44.06-.9.06-2.72,0-1,0-2.1-.06-3.15a9.74,9.74,0,0,1,1.21.6h.77a6.82,6.82,0,0,0,.25-1.32h-2.22a4.66,4.66,0,0,0-.77.07l-.13-.45a3.86,3.86,0,0,0,.9.1h3.26a7.8,7.8,0,0,0,.37-1,7.66,7.66,0,0,0,.23-1c1,.32,1.51.54,1.51.68s-.13.23-.56.25a6,6,0,0,1-1.16,1.07h1.46c.55-.65.69-.74.78-.74s.24.09.78.51c.24.21.33.3.33.39s0,.12-.15.12Zm-1.86-.46c-.26,0-.37-.12-.46-.47a3.12,3.12,0,0,0-.63-1.2c0-.05,0-.12.1-.1,1.08.28,1.57.63,1.57,1.16A.57.57,0,0,1,240,384.24Zm2.83,2.05h-3.51v1.3h3.51Zm0,1.57h-3.51v1.33h3.51Zm0,1.61h-3.51v1.4h3.51Z"/><path class="cls-3" d="M247,391c0,.79-.21,1.39-.66,1.39-.21,0-.37-.2-.37-.49a.65.65,0,0,1,.23-.53,1.91,1.91,0,0,0,.55-1.39c0-.06.13-.06.15,0A5.33,5.33,0,0,1,247,391Zm.67-2.05c0,.25-.17.39-.56.39s-.44-.1-.44-.33c0-.39,0-1.15,0-4.18,0-.8,0-1-.08-2a5.38,5.38,0,0,1,1.13.55h2.14c.45-.6.55-.67.64-.67s.22.07.65.47c.19.16.26.26.26.36s0,.12-.17.12h-1.74V385h.34c.28-.48.42-.57.51-.57s.21.09.53.41c.11.12.21.24.21.32s0,.12-.15.12h-1.44v1.45h.28c.34-.48.48-.58.57-.58s.2.1.51.41c.11.12.21.24.21.33s0,.12-.16.12h-1.41v1.53H250c.32-.45.42-.53.51-.53s.22.08.62.44c.16.14.23.24.23.33s0,.13-.32.34a11.47,11.47,0,0,1-.51,3.36,1.52,1.52,0,0,1-.57.66,1.39,1.39,0,0,1-.77.22c-.2,0-.26-.06-.3-.28-.09-.46-.16-.51-1-.83-.06,0,0-.15,0-.15.6.06,1,.1,1.26.1s.46-.12.58-.71a13.59,13.59,0,0,0,.28-2.67h-2.38Zm-.05,2.84c-.21,0-.23,0-.23-.51a4,4,0,0,0-.15-1.31c0-.06.08-.11.11-.06a2,2,0,0,1,.69,1.28C248.05,391.5,247.84,391.78,247.63,391.78Zm1-6.74v-1.42h-.93V385Zm0,1.73v-1.45h-.93v1.45Zm0,1.81v-1.53h-.93v1.53Zm0,2.78c-.14,0-.18-.07-.24-.4a2.87,2.87,0,0,0-.43-1.18s0-.12.09-.08c.67.42,1,.76,1,1.12S248.8,391.36,248.58,391.36Zm.89-.61c-.13,0-.2-.07-.27-.29a2.35,2.35,0,0,0-.65-.92c-.05,0,0-.11.06-.1.75.14,1.16.44,1.16.87C249.77,390.56,249.65,390.75,249.47,390.75Zm4.79-3.46a7.14,7.14,0,0,0,1,2.74,6.36,6.36,0,0,0,2.26,2.08.06.06,0,0,1,0,.11c-.42.1-.61.36-.83.91-.06.14-.1.18-.19.18s-.18-.1-.33-.25a6.86,6.86,0,0,1-1.4-2.16,12.48,12.48,0,0,1-.76-3.61h-1a13,13,0,0,1-.33,2.9,6.24,6.24,0,0,1-2,3.34c-.05,0-.15,0-.11-.09a8.25,8.25,0,0,0,1.11-2.75,21.47,21.47,0,0,0,.33-4.64c0-1.57,0-2.42-.07-3.26a12.51,12.51,0,0,1,1.27.63h2.32c.4-.43.49-.5.59-.5s.22.07.64.43c.18.17.25.25.25.35s-.07.19-.31.36c0,2.24.06,2.69.06,3.43,0,.35-.22.49-.69.49-.32,0-.46-.09-.46-.38v-.31Zm1.25-3.59H253v.42c0,1.21,0,2.14,0,2.89h2.55Z"/><path class="cls-3" d="M330.2,221.86c0,1.2,0,1.37.13,1.6s.42.26.93.31c.08,0,.09,0,.09.17s0,.14-.12.14c-.55,0-1.16-.05-1.71-.05s-1.14,0-1.66.05c-.09,0-.12,0-.12-.14s0-.16.12-.17c.45-.05.71-.06.83-.31a4.37,4.37,0,0,0,.14-1.6v-4.34c0-1.15,0-1.29-.12-1.56s-.48-.25-1-.3c-.08,0-.11,0-.11-.17s0-.15.11-.15c.57,0,1.19,0,1.72,0s1.22,0,2,0c2.37,0,3.27,1,3.27,2.24a2.3,2.3,0,0,1-2,2.15c.51.93,1.09,1.94,1.73,3a2.76,2.76,0,0,0,.7.9,1.65,1.65,0,0,0,.73.18c.08,0,.1,0,.1.16s0,.15-.1.15c-.5,0-.88-.05-1.27-.05s-.68,0-1.1,0a6.54,6.54,0,0,0-.43-.94c-.59-1.08-1.13-2.09-1.73-3.17a2.48,2.48,0,0,1-.39,0,6.79,6.79,0,0,1-.75,0Zm0-2.34a5.45,5.45,0,0,0,.78,0c1.62,0,2.21-.85,2.21-1.93a1.73,1.73,0,0,0-2-1.91c-.31,0-.7,0-.87.23a4.27,4.27,0,0,0-.13,1.56Z"/><path class="cls-3" d="M341.89,221.36a2.8,2.8,0,1,1-5.6,0,2.8,2.8,0,1,1,5.6,0Zm-4.2,0c0,1.5.44,2.55,1.39,2.55s1.41-1.14,1.41-2.55-.45-2.57-1.41-2.57S337.69,219.92,337.69,221.36Z"/><path class="cls-3" d="M342.8,219.3c-.12,0-.15,0-.16-.14s0-.15.14-.18a15.41,15.41,0,0,0,1.89-.52c.08,0,.15,0,.15.09,0,.34,0,.71,0,1a2.15,2.15,0,0,1,1.86-1.14,1.68,1.68,0,0,1,1.75,1.72c0,.44,0,1,0,1.33v.83a3.72,3.72,0,0,0,.1,1.27c.08.18.27.19.62.23.07,0,.1,0,.1.14s0,.13-.1.13l-1.31,0-1.36,0c-.09,0-.1,0-.1-.13s0-.14.1-.14c.32,0,.51,0,.61-.23a3.6,3.6,0,0,0,.1-1.27v-1.63a2.27,2.27,0,0,0-.15-1,.88.88,0,0,0-.87-.6,1.31,1.31,0,0,0-1.08.69,1.54,1.54,0,0,0-.26,1v1.62a4,4,0,0,0,.08,1.27c.09.19.28.19.66.23.08,0,.1,0,.1.14s0,.13-.1.13l-1.29,0-1.38,0c-.07,0-.08,0-.08-.13s0-.13.08-.14c.35,0,.54,0,.64-.23a4.1,4.1,0,0,0,.08-1.27v-1.78a3.45,3.45,0,0,0-.08-1,.32.32,0,0,0-.37-.25Z"/><path class="cls-3" d="M356.43,221.87c0,1.2,0,1.4.1,1.62s.46.26,1,.3c.08,0,.11,0,.11.15s0,.14-.12.14l-1.77,0c-.51,0-1.15,0-1.69,0-.07,0-.08,0-.08-.13s0-.14.08-.16c.49,0,.72,0,.85-.3a3.77,3.77,0,0,0,.16-1.62v-4.35c0-1.15,0-1.31-.16-1.57s-.38-.24-.88-.29c-.08,0-.1,0-.1-.15s0-.17.1-.17c.55,0,1.2,0,1.72,0s1.17,0,1.68,0c.11,0,.15,0,.15.17s0,.14-.12.15c-.46.05-.72.05-.87.29a4.79,4.79,0,0,0-.12,1.57v1.7c.77,0,1.44,0,2.15,0s1.33,0,2.09,0v-1.7c0-1.15,0-1.32-.12-1.57s-.42-.24-.93-.29c-.08,0-.09,0-.09-.15s0-.17.11-.17c.56,0,1.21,0,1.76,0s1.13,0,1.65,0c.12,0,.15,0,.15.15s0,.16-.13.17c-.47.05-.7.05-.83.29a3.71,3.71,0,0,0-.17,1.57v4.35c0,1.2,0,1.37.16,1.62s.42.26.93.3c.07,0,.09,0,.09.16s0,.13-.11.13l-1.74,0-1.7,0c-.1,0-.11,0-.11-.13s0-.14.11-.16c.48,0,.69,0,.82-.3a4.19,4.19,0,0,0,.15-1.62v-2.11c-.76,0-1.39,0-2.09,0s-1.38,0-2.15,0Z"/><path class="cls-3" d="M365.58,221.33c0,1.59,1,2.38,1.71,2.38a1.84,1.84,0,0,0,1.67-.86.14.14,0,0,1,.12-.06.25.25,0,0,1,.11,0c.05,0,.09.09.09.12a.3.3,0,0,1-.06.14,2.37,2.37,0,0,1-2.21,1.18,2.7,2.7,0,0,1-2.77-2.87,2.83,2.83,0,0,1,2.78-3,2.37,2.37,0,0,1,2.34,2.23.27.27,0,0,1-.06.21c-.06.07-.11.06-.18.06-1.22,0-2.43-.05-3.49,0A1.53,1.53,0,0,0,365.58,221.33Zm2.35-.89c.09,0,.11-.09.11-.2,0-.67-.33-1.45-1-1.45s-1.15.7-1.33,1.68A18.61,18.61,0,0,0,367.93,220.44Z"/><path class="cls-3" d="M370.11,219.31c-.13,0-.15,0-.16-.13s0-.16.14-.18a18.42,18.42,0,0,0,1.92-.54c.08,0,.16,0,.16.1,0,.34,0,.7,0,1.18.36-.65.86-1.32,1.55-1.32.4,0,.66.16.66.37,0,.48-.36.9-.65.9s-.43-.26-.67-.26-.31.06-.55.36a1.53,1.53,0,0,0-.34,1.05v1.47a4.26,4.26,0,0,0,.08,1.27c.1.19.29.19.71.23.07,0,.09,0,.09.15s0,.12-.09.12l-1.35,0-1.41,0c-.07,0-.09,0-.09-.12s0-.14.09-.15c.36,0,.55,0,.64-.23a3.28,3.28,0,0,0,.12-1.27v-1.78a3.54,3.54,0,0,0-.1-1,.34.34,0,0,0-.41-.27Z"/><path class="cls-3" d="M374.8,219.31c-.12,0-.15,0-.16-.13s0-.16.13-.18c.49-.11,1.33-.34,1.92-.53.07,0,.13.05.13.09,0,.35,0,.71,0,1a2,2,0,0,1,1.69-1.14,1.68,1.68,0,0,1,1.71,1.19,2.09,2.09,0,0,1,1.87-1.19,1.64,1.64,0,0,1,1.71,1.72c0,.44,0,1,0,1.33v.83a4.3,4.3,0,0,0,.08,1.27c.1.18.35.19.67.23.07,0,.1,0,.1.13s0,.14-.1.14l-1.32,0-1.39,0c-.09,0-.11,0-.11-.14s0-.13.11-.13c.34,0,.53,0,.63-.23a4,4,0,0,0,.09-1.27v-1.63a2.73,2.73,0,0,0-.13-1,.82.82,0,0,0-.84-.6,1.22,1.22,0,0,0-1,.69,1.46,1.46,0,0,0-.25.93v1.65a4.3,4.3,0,0,0,.08,1.27c.08.18.32.19.68.23.08,0,.09,0,.09.14s0,.13-.1.13l-1.32,0-1.36,0c-.1,0-.11,0-.11-.14s0-.13.11-.13c.32,0,.51,0,.61-.23a4,4,0,0,0,.09-1.27v-1.63a2.39,2.39,0,0,0-.13-1,.85.85,0,0,0-.85-.6,1.21,1.21,0,0,0-1,.69,1.61,1.61,0,0,0-.26,1v1.62a4.46,4.46,0,0,0,.07,1.27c.08.19.34.19.67.23.07,0,.1,0,.1.15s0,.12-.1.12l-1.33,0-1.34,0c-.09,0-.11,0-.11-.13s0-.13.11-.14c.33,0,.53,0,.63-.23a3.45,3.45,0,0,0,.09-1.27v-1.78a3,3,0,0,0-.09-1,.34.34,0,0,0-.42-.26Z"/><path class="cls-3" d="M389.62,222.73c0,.76.16,1.05.44,1.05a.59.59,0,0,0,.34-.08c.05,0,.11,0,.16.06s.05.12,0,.18a1.73,1.73,0,0,1-1,.27,1,1,0,0,1-1-.64,2.12,2.12,0,0,1-1.68.7c-1.18,0-1.54-.73-1.54-1.27a1.4,1.4,0,0,1,.41-1.07,3.94,3.94,0,0,1,1.53-.66,2.35,2.35,0,0,0,.94-.43.64.64,0,0,0,.28-.46V220c0-.9-.23-1.27-.72-1.27a.79.79,0,0,0-.84.91c0,.32-.3.58-.93.58-.37,0-.47-.15-.47-.39,0-.56.93-1.44,2.4-1.44,1.77,0,1.79.85,1.78,1.79Zm-1.19-1.7c-.12.19-.29.28-1,.53a1.21,1.21,0,0,0-.88,1.26.9.9,0,0,0,.76,1,1,1,0,0,0,1.06-1.05Z"/><path class="cls-3" d="M391,219.3c-.12,0-.16,0-.17-.14s0-.15.15-.18a15.41,15.41,0,0,0,1.89-.52c.07,0,.15,0,.15.09,0,.34,0,.71,0,1a2.14,2.14,0,0,1,1.86-1.14,1.68,1.68,0,0,1,1.75,1.72c0,.44,0,1,0,1.33v.83a3.72,3.72,0,0,0,.1,1.27c.08.18.27.19.62.23.07,0,.1,0,.1.14s0,.13-.1.13l-1.31,0-1.37,0c-.08,0-.09,0-.09-.13s0-.14.09-.14c.33,0,.52,0,.62-.23a4,4,0,0,0,.09-1.27v-1.63a2.26,2.26,0,0,0-.14-1,.89.89,0,0,0-.88-.6,1.34,1.34,0,0,0-1.08.69,1.6,1.6,0,0,0-.25,1v1.62a4.46,4.46,0,0,0,.07,1.27c.1.19.29.19.66.23.09,0,.11,0,.11.14s0,.13-.11.13l-1.28,0-1.38,0c-.07,0-.08,0-.08-.13s0-.13.08-.14c.35,0,.54,0,.64-.23a4.1,4.1,0,0,0,.08-1.27v-1.78a3.45,3.45,0,0,0-.08-1,.33.33,0,0,0-.38-.25Z"/><path class="cls-3" d="M335.39,231.55c0,.09,0,.14-.11.16s-.15,0-.2-.09a4.6,4.6,0,0,0-1.08-1.5,2.33,2.33,0,0,0-1.53-.57c-1.74,0-3.08,1.64-3.08,4.13,0,2.21,1.35,3.89,3.14,3.89a3.23,3.23,0,0,0,3-1.67c0-.06.08-.09.24,0a.13.13,0,0,1,.08.21,3.77,3.77,0,0,1-3.52,2.17,4.56,4.56,0,1,1,0-9.12,6.27,6.27,0,0,1,1.53.19,3.18,3.18,0,0,0,1.34.13C335.24,230.09,335.32,230.92,335.39,231.55Z"/><path class="cls-3" d="M340.8,236.73c0,.76.15,1.05.43,1.05a.64.64,0,0,0,.35-.08s.1,0,.15.06,0,.12,0,.18a1.78,1.78,0,0,1-1,.27,1,1,0,0,1-1-.64,2.1,2.1,0,0,1-1.68.7c-1.18,0-1.54-.73-1.54-1.27a1.4,1.4,0,0,1,.41-1.07,3.92,3.92,0,0,1,1.54-.66,2.36,2.36,0,0,0,.93-.43.64.64,0,0,0,.28-.46V234c0-.9-.23-1.27-.72-1.27a.83.83,0,0,0-.63.24.85.85,0,0,0-.21.67c0,.32-.3.58-.93.58-.37,0-.46-.15-.46-.39,0-.56.92-1.44,2.4-1.44,1.76,0,1.78.85,1.77,1.79Zm-1.2-1.7c-.12.19-.29.28-1,.53a1.21,1.21,0,0,0-.88,1.26.9.9,0,0,0,.76,1,1,1,0,0,0,1.06-1.05Z"/><path class="cls-3" d="M344.25,236.28a3.82,3.82,0,0,0,.1,1.27c.08.17.43.21.79.24.06,0,.1,0,.1.15s0,.14-.1.14l-1.47,0-1.46,0c-.09,0-.12,0-.12-.14s0-.13.12-.15c.33,0,.63-.06.71-.24a3.23,3.23,0,0,0,.11-1.27v-1.74c0-.52,0-1,0-1.4-.29,0-.6,0-1,0-.05,0-.07,0-.07-.09l.09-.35a.13.13,0,0,1,.12-.07H343c0-.24,0-.45,0-.61a3.46,3.46,0,0,1,1-2.4,2.41,2.41,0,0,1,1.85-.82c.43,0,.71.09.71.38,0,.56-.3.92-.54.92s-.35-.12-.51-.3-.35-.38-.5-.36c-.37.06-.58.41-.67,1.26a18.54,18.54,0,0,0-.07,1.92l1.46,0c.06,0,.08,0,.08.07l-.11.36a.09.09,0,0,1-.09.08c-.46,0-.88,0-1.36,0Z"/><path class="cls-3" d="M347.79,235.33c0,1.59,1,2.38,1.72,2.38a1.85,1.85,0,0,0,1.67-.86.13.13,0,0,1,.12-.06.21.21,0,0,1,.1,0c.05,0,.1.09.1.12a.3.3,0,0,1-.06.14,2.37,2.37,0,0,1-2.22,1.18,2.71,2.71,0,0,1-2.77-2.87,2.83,2.83,0,0,1,2.78-3,2.36,2.36,0,0,1,2.34,2.23.27.27,0,0,1-.06.21c-.06.07-.11.06-.18.06-1.21,0-2.42-.05-3.49,0A2,2,0,0,0,347.79,235.33Zm2.35-.89c.1,0,.11-.09.11-.2,0-.67-.32-1.45-1-1.45s-1.15.7-1.33,1.68A18.61,18.61,0,0,0,350.14,234.44Z"/><path class="cls-1" d="M17.68,195.64s2.3.05,2.32-3.47-2.32-3.48-2.32-3.48H7.58v8s0,.65-2.53.64-2.52-.64-2.52-.64v-3.36H0v4.18s0,2.13,5.05,2.13,5.06-2.23,5.06-2.23v-6.19h6.73s.6,0,.63,1.05-.63,1.06-.63,1.06H11.79l5.05,6.31H20l-3.16-4Z"/><path class="cls-3" d="M30.18,195.22c0,2.13.05,3,.05,3.39s-.21.51-.74.51c-.36,0-.52-.11-.52-.44s0-1.27,0-3.18v-2.19H25.29a5,5,0,0,0-.8.07l-.13-.45a4.41,4.41,0,0,0,1,.1H29v-2.69a24.24,24.24,0,0,1-3.71.27c-.06,0-.08-.15,0-.16a23.57,23.57,0,0,0,5.3-1.43,7.27,7.27,0,0,0,1.69-.93c1,.68,1.27.91,1.27,1.13s-.14.21-.69.12a18.92,18.92,0,0,1-2.67.79V193h3c.65-.76.79-.85.88-.85s.24.09.82.59c.27.22.36.33.36.42s0,.12-.15.12h-4.9Z"/><path class="cls-3" d="M37.23,196.75c0,.75-.2,1.29-.68,1.29-.23,0-.39-.19-.39-.49a.62.62,0,0,1,.24-.51,1.86,1.86,0,0,0,.57-1.4c0-.06.14-.06.15,0A5.63,5.63,0,0,1,37.23,196.75Zm.63-2.09c0,.28-.18.38-.57.38s-.45-.08-.45-.32,0-1.2,0-3.84c0-1,0-1.56-.06-2.46A5.66,5.66,0,0,1,38,189h2.11c.47-.62.57-.69.66-.69s.22.07.67.47c.21.19.28.28.28.37s-.05.12-.18.12H39.68v1.44h.38c.31-.42.46-.51.54-.51s.23.09.53.37a.48.48,0,0,1,.2.3c0,.08,0,.12-.15.12h-1.5v1.47H40c.31-.42.45-.51.54-.51s.24.09.51.37a.53.53,0,0,1,.2.3c0,.08,0,.12-.16.12H39.68v1.56h.44c.31-.42.45-.49.54-.49s.25.07.6.39c.15.14.23.22.23.31s-.07.15-.3.3a10.8,10.8,0,0,1-.6,3.49,1.32,1.32,0,0,1-1.28.85c-.21,0-.23,0-.28-.27s-.19-.47-1.09-.77c-.06,0,0-.18,0-.17.63.07,1,.11,1.27.11s.42-.06.58-.54a10.61,10.61,0,0,0,.38-2.94H37.86Zm0,2.81c-.21,0-.23-.06-.23-.52a3.91,3.91,0,0,0-.17-1.29c0-.06.08-.14.12-.09a2,2,0,0,1,.71,1.31C38.29,197.18,38.08,197.47,37.86,197.47Zm.87-6.78v-1.44h-.87v1.44Zm0,1.75V191h-.87v1.47Zm0,1.84v-1.56h-.87v1.56Zm.05,2.76c-.15,0-.2-.1-.25-.41a2.93,2.93,0,0,0-.44-1.18s.07-.12.11-.08c.68.44,1,.77,1,1.13S39,197,38.78,197Zm.85-.64c-.12,0-.18-.07-.25-.26a2.17,2.17,0,0,0-.66-.93s0-.11.06-.09c.78.16,1.17.44,1.17.85C40,196.21,39.82,196.4,39.63,196.4ZM44.56,192a11.45,11.45,0,0,0,1.11,3.71,5.37,5.37,0,0,0,1.92,2.11s0,.12,0,.14c-.37.15-.47.28-.64.83-.07.22-.11.28-.19.28s-.2-.12-.35-.3a8.12,8.12,0,0,1-1.44-2.95,17.34,17.34,0,0,1-.56-3.47,11.33,11.33,0,0,1-1,3.93.12.12,0,0,1,.1,0c1,.56,1.39,1,1.39,1.59a.63.63,0,0,1-.6.67c-.32,0-.48-.12-.52-.73a3.64,3.64,0,0,0-.38-1.48,6.86,6.86,0,0,1-2.75,2.88s-.14-.07-.09-.11c1.67-1.56,2.49-3.74,2.71-7.1H42.21a5.13,5.13,0,0,0-.71.07l-.13-.44a3.78,3.78,0,0,0,.81.1h1.13c0-.64.06-1.24,0-1.75a11.36,11.36,0,0,0-.11-1.61c1.5.15,1.61.19,1.61.35s0,.18-.37.31c0,1,0,1.88-.06,2.7h1.11c.55-.72.7-.82.78-.82s.22.1.73.56c.22.21.32.33.32.41s0,.12-.16.12Z"/><path class="cls-3" d="M53.37,193.49a1.73,1.73,0,0,0-.32.07,1.27,1.27,0,0,1-.4.07.87.87,0,0,1-.55-.3,7.32,7.32,0,0,1-1.93,1.59A.43.43,0,0,1,50,195c-.07,0-.11,0-.11-.07s.06-.1.15-.19a12.69,12.69,0,0,0,1.53-1.95,8.9,8.9,0,0,0,.47-.88,1.53,1.53,0,0,0,.13-.47c0-.14,0-.25-.36-.42-.05,0-.1,0-.1-.09s.15-.18.34-.18a2,2,0,0,1,.88.31c.27.18.5.37.5.53a.37.37,0,0,1-.19.31.5.5,0,0,0-.21.17c-.14.2-.34.48-.7.93a1.12,1.12,0,0,0,.33,0,4.11,4.11,0,0,0,.63-.05c.81-.1,1.45-.19,2.07-.29a1.73,1.73,0,0,0,.56-.15.69.69,0,0,1,.41-.17,2,2,0,0,1,.94.25.34.34,0,0,1,.18.32c0,.18-.1.32-.43.32l-.71,0-1.63.11a2.19,2.19,0,0,1,.52.38.35.35,0,0,1,.1.28.45.45,0,0,1-.11.25.72.72,0,0,0-.17.26,9.09,9.09,0,0,1-1.47,2.2,6.91,6.91,0,0,1-2.28,1.68.78.78,0,0,1-.25.08c-.07,0-.1,0-.1-.08s0-.08.16-.2a7.84,7.84,0,0,0,1.43-1.39,9.29,9.29,0,0,0,1.5-2.52,2.53,2.53,0,0,0,.14-.55c0-.14-.06-.2-.19-.34A4.72,4.72,0,0,0,53.37,193.49Z"/><path class="cls-3" d="M66.08,191.35a7.75,7.75,0,0,0,2.82,2.38,9.41,9.41,0,0,0,2.51.85c.06,0,0,.16,0,.18-.37.1-.52.27-.67.76-.07.24-.13.32-.24.32a2,2,0,0,1-.72-.28,5.92,5.92,0,0,1-.55-.34,1,1,0,0,1-.23.21v.51c0,1.35,0,2.27,0,2.57s-.22.52-.69.52-.54-.12-.54-.47v-.27H63.62v.34c0,.3-.22.43-.62.43s-.57-.11-.57-.41,0-.74,0-2.25c0-.53,0-1.06,0-1.58a19.82,19.82,0,0,1-2.06,1c-.06,0-.13-.08-.08-.12a13.91,13.91,0,0,0,3.86-3.57,6.24,6.24,0,0,0,.94-1.7c1.08.36,1.46.55,1.46.72s-.11.18-.49.18Zm-1.61-2a8.66,8.66,0,0,1-3.78,3c-.06,0-.13-.1-.08-.14a11.48,11.48,0,0,0,2.28-2.69,5.3,5.3,0,0,0,.57-1.19c1.15.41,1.6.61,1.6.77S64.89,189.32,64.47,189.36Zm3.25,5.48c.3-.25.41-.34.5-.36A8.79,8.79,0,0,1,66,191.57,9.37,9.37,0,0,1,63,194.46l.68.38Zm.08.28H63.62V198H67.8Zm2-3.23c-.27,0-.46-.16-.71-.59a8.85,8.85,0,0,0-2.35-2.67s0-.15.06-.13c2.18.62,3.56,1.66,3.56,2.66C70.31,191.58,70.07,191.89,69.75,191.89Z"/><path class="cls-3" d="M73.12,196.6c0,.8-.21,1.39-.66,1.39-.21,0-.37-.2-.37-.49a.62.62,0,0,1,.23-.52,2,2,0,0,0,.55-1.4c0-.06.13-.06.15,0A5.33,5.33,0,0,1,73.12,196.6Zm.68-2c0,.26-.18.39-.57.39s-.44-.1-.44-.33c0-.39,0-1.15,0-4.18,0-.79,0-1-.08-2a5.92,5.92,0,0,1,1.13.55H76c.45-.6.55-.67.64-.67s.22.07.65.47c.19.17.27.26.27.36s0,.12-.18.12H75.67v1.42H76c.28-.47.42-.57.51-.57s.21.1.53.41a.62.62,0,0,1,.21.32c0,.09,0,.12-.15.12H75.67v1.45H76c.34-.48.48-.57.57-.57s.2.09.51.4c.11.12.21.24.21.33s0,.12-.16.12H75.67v1.53h.43c.32-.45.42-.52.51-.52s.22.07.62.43c.16.14.24.24.24.33s0,.13-.33.34a11.47,11.47,0,0,1-.51,3.36,1.52,1.52,0,0,1-.57.66,1.38,1.38,0,0,1-.76.22c-.21,0-.27-.06-.3-.28-.1-.46-.17-.51-1-.83-.06,0,0-.14,0-.14.6.05,1,.09,1.26.09s.46-.12.58-.71a13.59,13.59,0,0,0,.28-2.67H73.8Zm-.06,2.85c-.21,0-.23,0-.23-.52a3.78,3.78,0,0,0-.15-1.31c0-.06.08-.11.11-.06a2,2,0,0,1,.69,1.29C74.16,197.11,74,197.4,73.74,197.4Zm1-6.75v-1.42H73.8v1.42Zm0,1.73v-1.45H73.8v1.45Zm0,1.81v-1.53H73.8v1.53Zm0,2.79c-.14,0-.18-.08-.23-.41a3,3,0,0,0-.44-1.18s0-.12.09-.08c.67.42,1,.77,1,1.13S74.91,197,74.69,197Zm.89-.62c-.13,0-.2-.07-.27-.28a2.31,2.31,0,0,0-.65-.93s0-.11.06-.09c.75.13,1.16.43,1.16.86C75.88,196.17,75.76,196.36,75.58,196.36Zm4.79-3.46a7.14,7.14,0,0,0,1,2.74,6.28,6.28,0,0,0,2.26,2.08s0,.09,0,.11c-.42.11-.61.36-.82.91-.07.14-.11.18-.2.18s-.18-.1-.33-.25a6.66,6.66,0,0,1-1.39-2.16,12.11,12.11,0,0,1-.77-3.61h-1a13,13,0,0,1-.33,2.9,6.31,6.31,0,0,1-2,3.35s-.15-.05-.11-.1a8.25,8.25,0,0,0,1.11-2.75,21.42,21.42,0,0,0,.33-4.64c0-1.57,0-2.42-.07-3.26a12.56,12.56,0,0,1,1.27.64h2.32c.4-.44.5-.51.59-.51s.22.07.64.43c.18.17.25.26.25.35s-.07.19-.31.36c0,2.24.06,2.69.06,3.43,0,.35-.22.49-.69.49-.32,0-.46-.09-.46-.38v-.31Zm1.25-3.59H79.11v.42c0,1.21,0,2.14,0,2.89h2.55Z"/><polygon class="cls-2" points="517.37 437.17 398.82 415.68 336.42 328.32 336.31 327.82 292.78 134.88 300.15 74.69 305.12 75.29 297.85 134.63 341.07 326.23 401.71 411.12 514.76 431.61 577.89 319.53 582.25 321.99 517.37 437.17"/><rect class="cls-2" x="306.03" y="219.73" width="19.38" height="1" transform="translate(-0.86 1.23) rotate(-0.22)"/><rect class="cls-1" x="139.82" y="113.6" width="6" height="21.76" transform="translate(240.33 286.91) rotate(-162.05)"/><path class="cls-3" d="M585.1,409.4v.72c0,.31-.23.44-.65.44s-.48-.13-.48-.37c0-.69,0-1.53,0-4.3,0-1.06,0-2.13-.07-3.21a9.56,9.56,0,0,1,1.23.65h1.6c.39-.48.49-.55.59-.55s.22.07.66.39c.2.16.27.24.27.34s0,.15-.31.38v1c0,2.59.06,4.46.06,5.05,0,.31-.22.46-.66.46s-.47-.1-.47-.37v-.6Zm1.82-5.8H585.1v2.51h1.82Zm0,2.79H585.1v2.73h1.82Zm3.23,2.33a6.71,6.71,0,0,1-.41,1.43,5.69,5.69,0,0,1-3,3s-.15-.08-.1-.11a6.43,6.43,0,0,0,2.13-3,14.38,14.38,0,0,0,.45-4.79c0-1.09,0-1.83-.09-2.85a7.81,7.81,0,0,1,1.32.68h2.26c.43-.49.52-.56.62-.56s.22.07.68.43c.21.17.28.25.28.35s0,.14-.32.34v.67c0,6.47,0,6.9,0,7.56s-.11.82-.47,1a1.6,1.6,0,0,1-.87.24c-.23,0-.27,0-.3-.24-.09-.49-.37-.65-1.3-.88-.06,0-.06-.15,0-.15.65,0,1.11.05,1.57.05.17,0,.21,0,.21-.2v-3Zm.21-2.71c0,.82-.06,1.64-.16,2.44h2.65V406Zm2.49-2.69h-2.49v.49c0,.71,0,1.34,0,1.93h2.49Z"/><path class="cls-3" d="M597,407.24c-.29,0-.4-.18-.63-.71a2.48,2.48,0,0,0-.82-1.06c-.05,0,0-.09,0-.09,1.29.11,2,.53,2,1.21A.58.58,0,0,1,597,407.24Zm.55,2.37a2.83,2.83,0,0,0-.17.76c0,.63.46,1.15.46,1.78a.79.79,0,0,1-.78.87c-.4,0-.58-.21-.58-.61s.1-.8.1-1.19c0-.76-.09-.88-.87-1.18-.06,0,0-.19,0-.18a2.53,2.53,0,0,0,.41,0,.63.63,0,0,0,.57-.3c.41-.64,1.34-2.49,2.23-4.42,0-.06.17,0,.15.08C598.37,407.48,598,408.41,597.58,409.61Zm.42-5.09c-.35,0-.43-.17-.68-.74a2.69,2.69,0,0,0-.86-1.08s0-.09,0-.09c1.29.09,2,.55,2,1.24C598.54,404.3,598.26,404.52,598,404.52Zm1.86,2.8c-.11.28-.19.39-.33.39s-.15,0-.54-1.44c.58,0,.92,0,1.36,0a19.14,19.14,0,0,0,.92-2.78,10.89,10.89,0,0,0,.23-1.35c1.19.28,1.63.46,1.63.66s-.12.22-.44.27a14.86,14.86,0,0,1-1.86,3.2c1.32,0,2.64-.08,4-.17a7,7,0,0,0-1.26-1.81c0-.05,0-.12.09-.09,1.58.68,2.67,1.73,2.67,2.57a.74.74,0,0,1-.64.78c-.25,0-.39-.15-.53-.56,0-.18-.12-.36-.19-.54A34.59,34.59,0,0,1,599.86,407.32Zm1,4.94v.48c0,.33-.23.48-.7.48s-.49-.12-.49-.38c0-.54.06-1.12.06-3.3,0-.52,0-1,0-1.57a9.62,9.62,0,0,1,1.25.6h3.29c.43-.52.52-.59.62-.59s.21.07.7.48c.21.19.28.28.28.37s-.07.21-.37.4v.57c0,1.5,0,2.55,0,2.88s-.22.48-.72.48c-.32,0-.48-.13-.48-.42v-.48Zm3.45-3.42h-3.45V412h3.45Z"/><path class="cls-3" d="M609.08,408.15a8.22,8.22,0,0,1-1.65,1s-.15-.09-.11-.13a10.49,10.49,0,0,0,3.08-4.28h-2a3.18,3.18,0,0,0-.76.09l-.13-.46a4.38,4.38,0,0,0,.89.09h.63v-1.34a6.92,6.92,0,0,0-.08-1c1.39.13,1.55.26,1.55.39s-.14.24-.4.35v1.64h.26c.35-.39.45-.47.54-.47s.21.08.63.5c.18.19.25.28.25.38s-.1.19-.4.3a8.48,8.48,0,0,1-1.28,2v.2c1.1.31,1.69.78,1.69,1.32a.53.53,0,0,1-.49.57c-.24,0-.33-.08-.48-.48a2.92,2.92,0,0,0-.72-1.15v1.45c0,2.21,0,3.07,0,3.64,0,.33-.24.49-.63.49s-.54-.12-.54-.44.08-1.06.08-2.67Zm6.5,1.33c0,1.55,0,2.64,0,3.15s-.2.57-.66.57-.54-.11-.54-.51,0-1.5,0-3.21h-1.32v.17c0,.33-.19.48-.59.48s-.51-.12-.51-.37c0-.59,0-1.19,0-3.58,0-.79,0-1.58-.06-2.37.58.29.68.32,1.22.63h1.24v-.22a15.91,15.91,0,0,0-.07-2.12c1.37.14,1.57.18,1.57.41s-.11.23-.42.35v1.58H617c.43-.5.52-.57.62-.57s.2.07.62.44c.18.17.25.26.25.36s-.09.23-.36.37v.77c0,2,.08,3.43.08,3.89s-.22.46-.64.46-.49-.12-.49-.42v-.26Zm-1.11-4.76h-1.34v2h1.34Zm0,4.48c0-.73,0-1.46,0-2.19h-1.33v2.19Zm2.59-2.47v-2h-1.49v2Zm0,2.47V407h-1.48v.81c0,.46,0,.93,0,1.38Z"/><path class="cls-3" d="M628.73,403.8c.39-.53.49-.6.59-.6s.2.07.82.64c.29.27.36.36.36.46s-.08.27-.51.29a.46.46,0,0,0-.3.07,4.38,4.38,0,0,1-1,.69.06.06,0,0,1-.09-.08,8.57,8.57,0,0,0,.27-1.2h-7.59c.07,1-.31,1.68-.95,1.68a.6.6,0,0,1-.61-.64.57.57,0,0,1,.38-.57,1.33,1.33,0,0,0,.88-1.33c0-.06.12-.07.13,0a3.22,3.22,0,0,1,.13.6h3.12V403a6.47,6.47,0,0,0-.06-.86c1.51.13,1.66.26,1.66.38s-.14.25-.41.37v.92Zm-5.84,4c0,.41-.15.54-.6.54s-.52-.11-.52-.47.05-.65.05-2a10.05,10.05,0,0,0-.05-1.09,8.82,8.82,0,0,1,1.28.61H627c.42-.45.52-.53.62-.53s.21.08.66.44c.19.16.26.25.26.34s-.07.18-.32.35v.3c0,.77,0,1.3,0,1.47s-.25.44-.65.44-.49-.11-.5-.43h-1.52a12,12,0,0,1-1.19,1.72h3.54c.42-.48.51-.55.61-.55s.22.07.68.46c.21.18.28.26.28.36s-.09.2-.35.36v.41c0,1,0,1.77,0,2s-.23.54-.66.54-.54-.11-.54-.5v-.12h-6v.14c0,.42-.16.56-.62.56s-.54-.13-.54-.46.06-.68.06-2q0-.9-.06-1.8c.61.28.7.32,1.27.62h1.82a14.21,14.21,0,0,0,.23-1.72Zm5.07,2h-6v2.41h6Zm-.9-4.1h-4.17v1.82h4.17Z"/><path class="cls-3" d="M637.72,404.3a12.38,12.38,0,0,0,.57-1.24,6.35,6.35,0,0,0,.27-.93c1,.31,1.53.55,1.53.71s-.15.24-.54.24a10.75,10.75,0,0,1-1.35,1.22h2.24c.61-.7.76-.79.84-.79s.24.09.81.55c.27.21.36.31.36.39s0,.12-.15.12h-9.56a6.22,6.22,0,0,0-.88.08l-.13-.45a5.51,5.51,0,0,0,1,.1Zm-4.18,5.46c0,1.45,0,2.19,0,2.93,0,.33-.21.45-.65.45s-.52-.1-.52-.39c0-.66.06-1.33.06-4,0-1.15,0-2.3,0-3.47a5.72,5.72,0,0,1,1.2.55h1.94c.4-.45.49-.52.59-.52s.21.07.63.4c.18.16.26.24.26.34s-.08.17-.33.34v.93c0,3.85,0,4.39,0,4.76a1,1,0,0,1-.3.77,1.27,1.27,0,0,1-.87.25c-.13,0-.18-.06-.2-.23-.07-.4-.19-.6-1.11-.87-.06,0,0-.15,0-.15.45,0,.84,0,1.23,0,.1,0,.12,0,.12-.19v-1.95Zm2.1-3.65h-2.1v1.51h2.1Zm0,1.79h-2.1v1.58h2.1Zm-.23-3.73c-.31,0-.43-.14-.52-.55a3.19,3.19,0,0,0-.58-1.28s0-.13.09-.12c1.11.29,1.63.7,1.63,1.29A.63.63,0,0,1,635.41,404.17Zm3.7,2.91c0,1.72,0,2.89,0,3.28s-.21.49-.68.49-.46-.07-.46-.46,0-1.44,0-3.6c0-.43,0-.66,0-1.06,1.32.16,1.55.22,1.55.38s-.14.22-.41.32Zm1.29-.67a6.93,6.93,0,0,0-.06-1c1.44.16,1.56.2,1.56.4s-.12.21-.39.32v3.15c0,.62,0,2.05,0,2.74a1.08,1.08,0,0,1-1.2,1.1c-.28,0-.29,0-.35-.3s-.3-.58-1.3-.85c-.06,0-.06-.15,0-.15.52,0,1.09.06,1.39.06s.3,0,.3-.18Z"/><path class="cls-3" d="M644.34,410.66c0,.79-.21,1.39-.66,1.39-.21,0-.37-.21-.37-.49a.62.62,0,0,1,.23-.53,1.94,1.94,0,0,0,.55-1.39c0-.06.13-.06.15,0A5.18,5.18,0,0,1,644.34,410.66Zm.68-2.06c0,.26-.18.39-.57.39s-.44-.1-.44-.33c0-.39,0-1.15,0-4.18,0-.79,0-1-.08-2a6.58,6.58,0,0,1,1.13.55h2.14c.45-.6.55-.67.64-.67s.22.07.65.47c.19.17.27.26.27.36s0,.12-.18.12h-1.74v1.43h.34c.28-.48.42-.58.51-.58s.21.1.53.41a.62.62,0,0,1,.21.32c0,.09,0,.12-.15.12h-1.44v1.45h.28c.34-.48.48-.57.57-.57s.2.09.51.41c.11.12.21.24.21.32s0,.12-.16.12h-1.41v1.53h.43c.32-.45.42-.52.51-.52s.22.07.62.43c.16.14.24.24.24.33s0,.14-.33.34a11.41,11.41,0,0,1-.51,3.36,1.52,1.52,0,0,1-.57.66,1.39,1.39,0,0,1-.76.23c-.21,0-.27-.06-.3-.29-.1-.46-.17-.51-1-.83-.06,0,0-.14,0-.14.6.06,1,.09,1.26.09s.46-.12.58-.71a13.59,13.59,0,0,0,.28-2.67H645Zm-.06,2.85c-.21,0-.23,0-.23-.52a3.81,3.81,0,0,0-.15-1.31c0-.06.08-.1.11-.06a2,2,0,0,1,.69,1.29C645.38,411.16,645.17,411.45,645,411.45Zm1-6.74v-1.43H645v1.43Zm0,1.72V405H645v1.45Zm0,1.81v-1.53H645v1.53Zm0,2.79c-.14,0-.17-.07-.23-.41a3.16,3.16,0,0,0-.44-1.18s0-.12.09-.08c.67.42,1,.77,1,1.13S646.13,411,645.91,411Zm.89-.61c-.13,0-.2-.08-.27-.29a2.28,2.28,0,0,0-.65-.93s0-.1.06-.09c.76.13,1.16.43,1.16.86C647.1,410.22,647,410.42,646.8,410.42Zm4.79-3.47a7.25,7.25,0,0,0,1,2.75,6.26,6.26,0,0,0,2.26,2.07c.05,0,.05.1,0,.11-.42.11-.61.36-.82.91-.07.14-.11.18-.2.18s-.18-.1-.33-.25a6.66,6.66,0,0,1-1.39-2.16,12.11,12.11,0,0,1-.77-3.61h-1a12.81,12.81,0,0,1-.33,2.9,6.27,6.27,0,0,1-2.05,3.35s-.15-.05-.11-.1a8.28,8.28,0,0,0,1.11-2.74,21.58,21.58,0,0,0,.33-4.65c0-1.57,0-2.42-.07-3.26.61.28.7.33,1.27.64h2.32c.4-.43.5-.51.59-.51s.22.08.64.44c.18.16.25.25.25.34s-.07.2-.31.36c0,2.25.06,2.69.06,3.43,0,.35-.22.5-.69.5-.32,0-.46-.1-.46-.39V407Zm1.25-3.59h-2.51v.42c0,1.21,0,2.14,0,2.89h2.55Z"/><path class="cls-1" d="M574.4,411.1c-2,.5-4.53,2.31-6.41,4-1.88-1.69-4.44-3.5-6.41-4-3-.77-4,1.38-3.44,5a23.36,23.36,0,0,0,2.5,7l3.55-.9.15,0c-2.3-3.18-4.14-7.35-2.43-8.31,1.14-.64,3.42.7,5.13,2.2a12.17,12.17,0,0,0-1.29,1.45c-1.26,1.75-1.68,3.69.17,4.39a7.63,7.63,0,0,0,2.07.32,7.55,7.55,0,0,0,2.06-.32c1.86-.7,1.43-2.64.17-4.39a12.9,12.9,0,0,0-1.28-1.45c1.71-1.5,4-2.84,5.12-2.2,1.72,1-.13,5.13-2.43,8.31l.15,0,3.55.9a23.06,23.06,0,0,0,2.5-7C578.41,412.48,577.42,410.33,574.4,411.1Z"/><path id="地下鉄" class="cls-1" d="M574.81,399.08a5.62,5.62,0,0,0-1.23.18,7,7,0,0,0-5.39,6.65c0,.18-.1.16-.2.16s-.2,0-.2-.16a7,7,0,0,0-5.4-6.65,5.62,5.62,0,0,0-1.23-.18c-.16,0-.18-.06-.17-.2a6.85,6.85,0,0,1,1.2-3.72,7,7,0,0,1,4.81-3c.32,0,.65-.06,1-.07h0a7.93,7.93,0,0,1,1,.07,7,7,0,0,1,4.81,3,6.69,6.69,0,0,1,1.2,3.72C575,399,575,399.08,574.81,399.08Z"/><path class="cls-3" d="M183.89,114.39c0,.34-.22.48-.7.48-.33,0-.47-.12-.47-.4,0-1,.07-2.06.07-6.21,0-1.37,0-2.75-.06-4.13a8.57,8.57,0,0,1,1.34.7h7.39c.48-.54.57-.61.67-.61s.21.07.68.48c.21.19.28.27.28.37s-.1.23-.36.38v1.46c0,3.88.07,6.53.07,7.42,0,.34-.24.49-.72.49s-.49-.12-.49-.39v-.34h-7.7Zm7.7-9.29h-7.7v8.71h7.7ZM187,109.31h-1.38a4.26,4.26,0,0,0-.73.08l-.13-.45a3.79,3.79,0,0,0,.82.1H187v-2.2h-1.67a6.1,6.1,0,0,0-.76.07l-.14-.44a4.55,4.55,0,0,0,.89.1h4c.47-.57.62-.66.7-.66s.25.09.75.46c.21.17.31.27.31.35s0,.12-.16.12h-2.79V109h1c.4-.57.55-.66.63-.66s.24.09.7.45c.2.17.3.28.3.36s0,.12-.16.12h-2.43v2.83h1.48c.42-.61.57-.7.65-.7s.24.09.72.5c.21.17.3.28.3.36s0,.12-.15.12h-6a4.23,4.23,0,0,0-.73.07l-.13-.44a4,4,0,0,0,.85.09H187Zm2.75,2.14c-.23,0-.33-.1-.45-.42a2.53,2.53,0,0,0-.75-1.14s0-.1.06-.09c1.16.21,1.68.54,1.68,1.07A.55.55,0,0,1,189.77,111.45Z"/><path class="cls-3" d="M199.84,113.91a30.12,30.12,0,0,0,1.53-4.78,13.56,13.56,0,0,0,.24-1.42c1.24.34,1.74.57,1.74.76s-.13.24-.55.29a23.89,23.89,0,0,1-2.58,5.15h2.85c.66-.87.81-1,.89-1s.23.09.88.66c.29.26.38.37.38.45s0,.12-.16.12h-9.79a7.72,7.72,0,0,0-.88.07l-.13-.44a5.23,5.23,0,0,0,1,.1Zm-.8-8.78a5.78,5.78,0,0,0-.07-.89c1.51.13,1.66.26,1.66.38s-.13.22-.41.34v1.82h2.3c.65-.73.79-.83.88-.83s.24.1.84.58c.27.22.37.32.37.41s0,.12-.16.12h-8.54a5.56,5.56,0,0,0-.84.07l-.13-.44a5.11,5.11,0,0,0,1,.09H199Zm-1.1,7.61c-.38,0-.54-.24-.57-1.15a9.87,9.87,0,0,0-.8-3.6c0-.06.1-.12.14-.07a6.28,6.28,0,0,1,1.95,3.79C198.66,112.41,198.36,112.74,197.94,112.74Z"/><path class="cls-3" d="M208.62,111.86A3.83,3.83,0,0,1,206.1,115c-.06,0-.14-.1-.09-.13a4.4,4.4,0,0,0,1.48-2.37,6.22,6.22,0,0,0,.16-1.28c1.06.13,1.34.22,1.34.37S208.91,111.78,208.62,111.86Zm.45-4a8.63,8.63,0,0,0,.22-.91c.06-.31.11-.59.16-.93,1,.3,1.28.39,1.28.54s-.13.19-.42.22a4.79,4.79,0,0,1-.92,1.08h.6c.36-.48.5-.57.59-.57s.24.09.62.41c.16.13.25.24.25.32s0,.12-.15.12h-4a7.08,7.08,0,0,0-1,.07l-.13-.44a6.43,6.43,0,0,0,1.08.09Zm-.75-3a4.76,4.76,0,0,0,0-.74c1.36.12,1.49.24,1.49.36s-.13.2-.38.31v.76H210c.35-.47.5-.57.58-.57s.23.1.58.41c.13.12.23.23.23.31s0,.12-.16.12h-4a3.1,3.1,0,0,0-.62.08l-.14-.45a3,3,0,0,0,.72.1h1.13Zm-.61,6.07c0,.29-.17.41-.56.41s-.43-.1-.43-.34,0-.37,0-1.14c0-.47,0-1,0-1.45a5.93,5.93,0,0,1,1.07.53H210c.33-.43.43-.5.53-.5s.22.07.61.37c.18.14.25.23.25.32s-.08.22-.34.35v.23c0,.59,0,1,0,1.11,0,.3-.18.42-.6.42a.52.52,0,0,1-.32-.07V113a16.81,16.81,0,0,0,1.63-.66c.06,0,.13.1.08.13a13.88,13.88,0,0,1-2.61,1.79c0,.3-.06.39-.19.39s-.27-.19-.69-1.14a6,6,0,0,0,.79-.19v-2.41Zm.23-3.18c-.3,0-.4-.15-.42-.61a1.78,1.78,0,0,0-.39-1.09s0-.11.1-.08c.91.36,1.28.72,1.28,1.2A.54.54,0,0,1,207.94,107.75Zm2.12,2.91v-1.44h-2.35v1.44Zm3.75,1.21a3.89,3.89,0,0,1-3.19,3.22c-.06,0-.14-.08-.09-.12a4.22,4.22,0,0,0,2.29-3.74c1.09.15,1.35.22,1.35.37S214.09,111.8,213.81,111.87Zm.52-4.06a7.29,7.29,0,0,0,.26-.85,7,7,0,0,0,.2-1c1,.3,1.32.41,1.32.55s-.12.18-.42.22a7.11,7.11,0,0,1-1,1.06h1c.46-.58.6-.68.69-.68s.21.1.61.48c.15.16.25.28.25.36s0,.12-.16.12h-4.79a2.84,2.84,0,0,0-.6.07l-.14-.44a3,3,0,0,0,.74.09Zm-.85-3a4.76,4.76,0,0,0,0-.74c1.37.12,1.49.24,1.49.36s-.12.2-.36.31v.77h.84c.38-.52.53-.61.61-.61s.23.09.6.43c.15.14.25.25.25.34s0,.11-.15.11h-4.26a2.92,2.92,0,0,0-.6.08l-.13-.45a3,3,0,0,0,.73.1h1Zm1.93,8.87c0,.25.08.3.48.3a.79.79,0,0,0,.58-.15,3.42,3.42,0,0,0,.61-1.35c0-.06.13,0,.13,0,0,.5-.06.85-.06,1s0,.28.12.31a.44.44,0,0,1,.27.42c0,.27-.14.44-.5.53a4.64,4.64,0,0,1-1.16.11c-1.18,0-1.48-.19-1.48-.91,0-.15,0-.29,0-.89v-2.22h-1.5c0,.27-.21.41-.58.41s-.43-.11-.43-.29,0-.41,0-1.25c0-.45,0-.92,0-1.39.53.24.6.28,1.09.53h2.39c.32-.43.42-.5.51-.5s.22.07.62.38c.18.16.25.24.25.34s-.07.18-.33.32v.23c0,.59,0,1,0,1.11,0,.3-.18.42-.62.42-.28,0-.39-.08-.4-.31h-.06Zm-2.27-6c-.31,0-.42-.15-.44-.6a1.81,1.81,0,0,0-.37-1.08s0-.08.09-.06c.9.33,1.29.71,1.29,1.17A.53.53,0,0,1,213.14,107.74Zm2.33,1.48h-2.54v1.44h2.54Z"/><path class="cls-3" d="M221,109.16c.48-.18.95-.39,1.41-.6.06,0,.11.09.06.13a18.09,18.09,0,0,1-1.47,1.1v1.37c0,1.79,0,2.42,0,2.7a1.15,1.15,0,0,1-.35,1,1.41,1.41,0,0,1-.94.25c-.11,0-.17-.07-.18-.25,0-.47-.29-.65-1.14-.89-.06,0-.06-.16,0-.16.51,0,1,.06,1.35.06.16,0,.17,0,.17-.18v-3.19a7.81,7.81,0,0,1-.76.41c0,.33-.08.46-.22.46s-.19-.11-.69-1.35c.33-.07.66-.15,1-.25l.65-.19V107h-.77a3.91,3.91,0,0,0-.62.07l-.13-.44a3.17,3.17,0,0,0,.75.1h.77v-1.27a10.24,10.24,0,0,0-.06-1.42c1.19.1,1.52.18,1.52.38s-.12.23-.38.33v2h.08c.4-.53.54-.63.63-.63s.21.1.58.45c.15.13.24.25.24.33s0,.12-.15.12H221Zm4.76-.14h1.07c.41-.46.5-.53.6-.53s.21.07.71.5c.22.2.3.3.3.4s-.11.2-.5.33a9.31,9.31,0,0,1-1.86,2.7,7.86,7.86,0,0,0,3.37,1.2c.06,0,0,.13,0,.15-.38.16-.56.4-.77,1,0,.07-.07.13-.13.13a2.32,2.32,0,0,1-.5-.14,8.21,8.21,0,0,1-2.66-1.69,10.17,10.17,0,0,1-4.14,1.87c-.06,0-.12-.17-.06-.19a11.13,11.13,0,0,0,3.62-2.33,9.92,9.92,0,0,1-1.51-3.12,2.53,2.53,0,0,0-.72.1l-.13-.47a3.55,3.55,0,0,0,.8.09h1.43v-2.21h-1.17a5,5,0,0,0-.8.07l-.13-.45a3.86,3.86,0,0,0,.9.1h1.2v-1.32c0-.32,0-.67-.06-1.09,1.4.12,1.53.25,1.53.37s-.12.23-.37.35v1.69h1.57c.55-.67.7-.77.78-.77s.23.1.75.54c.21.18.3.3.3.39s0,.12-.16.12h-3.24Zm-2.22.28a8.25,8.25,0,0,0,1.79,2.53,8.69,8.69,0,0,0,1.5-2.53Z"/><path class="cls-3" d="M232.75,110.79c.48-.19,1-.41,1.39-.63.05,0,.12.09.08.14a16,16,0,0,1-3,2.25c0,.4-.06.55-.24.55s-.22-.29-.8-1.5a5,5,0,0,0,.9-.21l.56-.18v-3.5h-.6a2.51,2.51,0,0,0-.56.07l-.14-.45a2.16,2.16,0,0,0,.66.1h.64v-1.9c0-.52,0-1-.06-1.4,1.43.13,1.56.25,1.56.37s-.13.21-.4.31v2.62h.18c.39-.54.53-.64.62-.64s.22.1.61.45c.15.15.25.26.25.35s0,.12-.16.12h-1.5Zm6.42.11a7.32,7.32,0,0,1-4.95,4c-.06,0-.13-.12-.09-.15A9,9,0,0,0,238,110.9h-.64a6.86,6.86,0,0,1-4.12,3c-.06,0-.13-.09-.09-.12a7.25,7.25,0,0,0,3-2.86h-.64a7.58,7.58,0,0,1-2.77,1.63c-.06,0-.15-.1-.1-.13a8,8,0,0,0,2.34-2.22,5.22,5.22,0,0,0,.37-.75h-.65a8.9,8.9,0,0,0-.93.07l-.13-.44a6.23,6.23,0,0,0,1.05.1h4.83c.53-.63.68-.72.76-.72s.23.09.72.5c.2.18.3.29.3.37s0,.12-.16.12H236c.65.19.77.27.77.37s-.13.21-.4.21c-.17.21-.35.42-.53.61h3.76c.37-.42.47-.49.56-.49s.22.07.64.39c.18.15.25.23.25.33s0,.12-.35.37a9.24,9.24,0,0,1-.48,2.87,1.28,1.28,0,0,1-.56.69,1.72,1.72,0,0,1-.82.17c-.17,0-.2,0-.26-.32s-.31-.51-1.12-.77c-.06,0-.06-.17,0-.16.64.07,1.08.11,1.41.11s.43-.19.56-.87a14.54,14.54,0,0,0,.23-2Zm-3.31-2.74c0,.31-.2.46-.65.46-.29,0-.47-.09-.47-.34s0-.86,0-2.43c0-.67,0-1,0-1.68a8.83,8.83,0,0,1,1.2.59h2.63c.42-.47.52-.54.61-.54s.23.07.67.42c.21.15.28.24.28.33s-.07.21-.37.41v.42c0,1.13.05,2,.05,2.22s-.22.44-.66.44-.47-.11-.47-.39V108h-2.82Zm2.82-3.13h-2.82v1.19h2.82Zm0,1.46h-2.82v1.24h2.82Z"/><path class="cls-3" d="M243.06,112.5c0,.79-.21,1.39-.66,1.39-.21,0-.37-.2-.37-.49a.65.65,0,0,1,.23-.53,2,2,0,0,0,.55-1.39c0-.06.13-.06.14,0A4.67,4.67,0,0,1,243.06,112.5Zm.67-2c0,.25-.18.39-.56.39s-.44-.1-.44-.33c0-.39,0-1.15,0-4.18,0-.8,0-1-.07-2a6.22,6.22,0,0,1,1.13.55H246c.45-.6.55-.67.64-.67s.22.07.65.47c.19.16.26.26.26.36s0,.12-.18.12H245.6v1.42H246c.28-.48.42-.57.51-.57s.21.09.52.41c.12.12.22.24.22.32s0,.12-.16.12H245.6v1.45h.29c.34-.48.48-.57.57-.57s.2.09.51.4c.11.12.21.24.21.33s0,.12-.16.12H245.6v1.53H246c.32-.45.42-.53.51-.53s.22.08.61.44c.17.14.24.24.24.33s0,.13-.32.34a11,11,0,0,1-.52,3.36,1.5,1.5,0,0,1-.56.66,1.39,1.39,0,0,1-.77.22c-.2,0-.26-.06-.3-.28-.09-.46-.16-.51-1-.83-.06,0,0-.15,0-.15.6.06,1,.1,1.26.1s.46-.12.58-.71a13.59,13.59,0,0,0,.28-2.67h-2.38Zm-.06,2.84c-.2,0-.22,0-.22-.51a4,4,0,0,0-.15-1.31c0-.06.07-.11.11-.06a2,2,0,0,1,.68,1.28C244.09,113,243.89,113.29,243.67,113.29Zm1-6.74v-1.42h-.93v1.42Zm0,1.73v-1.45h-.93v1.45Zm0,1.81v-1.53h-.93v1.53Zm0,2.78c-.14,0-.18-.07-.24-.4a3,3,0,0,0-.43-1.18c0-.05,0-.12.09-.08.67.42,1,.77,1,1.13S244.85,112.87,244.63,112.87Zm.89-.61c-.13,0-.2-.07-.27-.28a2.31,2.31,0,0,0-.65-.93s0-.11.06-.09c.75.13,1.16.43,1.16.86C245.82,112.07,245.7,112.26,245.52,112.26Zm4.79-3.46a7.14,7.14,0,0,0,1,2.74,6.36,6.36,0,0,0,2.26,2.08.06.06,0,0,1,0,.11c-.42.1-.61.36-.83.91-.06.14-.1.18-.19.18s-.18-.1-.33-.25a6.86,6.86,0,0,1-1.4-2.16,12.15,12.15,0,0,1-.76-3.61h-1a12.29,12.29,0,0,1-.34,2.9,6.19,6.19,0,0,1-2,3.35s-.14,0-.1-.1a8.25,8.25,0,0,0,1.11-2.75,22.08,22.08,0,0,0,.33-4.64c0-1.57,0-2.42-.08-3.26a11.75,11.75,0,0,1,1.28.64h2.32c.4-.44.49-.51.59-.51s.22.07.64.43c.17.17.25.25.25.35s-.08.19-.32.36c0,2.24.07,2.69.07,3.43,0,.35-.22.49-.69.49s-.47-.09-.47-.38v-.31Zm1.24-3.59h-2.5v.42c0,1.21,0,2.14,0,2.89h2.54Z"/><rect class="cls-1" x="555.64" y="362.23" width="6" height="21.76" transform="translate(1165.55 85.09) rotate(120.87)"/><path id="地下鉄-2" data-name="地下鉄" class="cls-1" d="M178,110.14a5.22,5.22,0,0,0-1.23.18,7,7,0,0,0-5.39,6.65c0,.18-.1.16-.2.16s-.19,0-.2-.16a7,7,0,0,0-5.39-6.65,5.22,5.22,0,0,0-1.23-.18c-.17,0-.18-.07-.18-.2a7,7,0,0,1,6-6.74,8.24,8.24,0,0,1,1-.07h0a8.24,8.24,0,0,1,1,.07,6.92,6.92,0,0,1,4.8,3,6.84,6.84,0,0,1,1.21,3.73C178.21,110.07,178.2,110.14,178,110.14Z"/><path class="cls-3" d="M287.92,177.32a13.77,13.77,0,0,0-7.84,25.09c3.25,2.3,4,2.85,5.11,5,.9,1.72,2.37,4.75,2.37,4.75a.4.4,0,0,0,.54.18.35.35,0,0,0,.18-.18s1.47-3,2.37-4.75c1.14-2.18,1.86-2.73,5.11-5a13.77,13.77,0,0,0-7.84-25.09Z"/><path class="cls-3" d="M287.92,212.91a1,1,0,0,1-.29,0,.91.91,0,0,1-.52-.46s-1.48-3-2.36-4.74c-1.09-2.07-1.73-2.57-4.95-4.86a14.27,14.27,0,1,1,16.25,0c-3.23,2.29-3.87,2.79-4.95,4.86-.89,1.7-2.35,4.7-2.36,4.73a.88.88,0,0,1-.82.51Zm0-35.09a13.28,13.28,0,0,0-13.27,13.27A13.45,13.45,0,0,0,280.37,202c3.33,2.36,4.07,2.93,5.26,5.21.78,1.48,2,3.94,2.3,4.6.26-.57,1.49-3.1,2.28-4.6,1.19-2.28,1.93-2.85,5.26-5.21a13.45,13.45,0,0,0,5.72-10.92A13.28,13.28,0,0,0,287.92,177.82Z"/><path class="cls-4" d="M292.2,193.84c0,1.94.4,2.67,1.09,2.67a1.51,1.51,0,0,0,.88-.21.28.28,0,0,1,.4.15c.12.21.12.3-.09.46a4.35,4.35,0,0,1-2.58.69,2.57,2.57,0,0,1-2.58-1.64,5.28,5.28,0,0,1-4.25,1.79c-3,0-3.88-1.85-3.88-3.21a3.53,3.53,0,0,1,1-2.7c.91-.82,2-1.09,3.88-1.67a6.29,6.29,0,0,0,2.37-1.09,1.64,1.64,0,0,0,.7-1.19v-.84c0-2.28-.58-3.22-1.82-3.22a2.09,2.09,0,0,0-1.58.61,2.11,2.11,0,0,0-.54,1.7c0,.81-.76,1.45-2.34,1.45-.94,0-1.18-.36-1.18-1,0-1.43,2.33-3.64,6.06-3.64,4.46,0,4.52,2.15,4.49,4.52Zm-3-4.28c-.3.46-.73.7-2.43,1.34a3.06,3.06,0,0,0-2.21,3.18,2.27,2.27,0,0,0,1.91,2.49,2.63,2.63,0,0,0,2.7-2.64Z"/></g></g></svg>