<svg xmlns="http://www.w3.org/2000/svg" viewBox="0 0 120.69 41.51"><defs><style>.cls-1{isolation:isolate;}.cls-2{fill:#fff;}.cls-3{fill:#b28223;}</style></defs><g id="レイヤー_2" data-name="レイヤー 2"><g id="レイヤー_1-2" data-name="レイヤー 1"><g id="グループ_274" data-name="グループ 274"><g id="addict_gym" data-name="addict gym" class="cls-1"><g class="cls-1"><path class="cls-2" d="M7.92,10.65a3.92,3.92,0,0,1,.63,2.52c0,1.17-.12,4.89-.12,5.22,0,1.26.87,1.44,1.17,1.44a4.53,4.53,0,0,0,1.14-.45c.09,0,.12,0,.18.09a.77.77,0,0,1,.06.33c0,.57-1.35,1.89-2.79,1.89a2,2,0,0,1-1.95-1.47c0-.06-.15-.15-.21-.12a13.48,13.48,0,0,1-2.64,1.35,5.07,5.07,0,0,1-1.23.18C1.08,21.63,0,20.34,0,18.81A2.68,2.68,0,0,1,.6,17.25a2.74,2.74,0,0,1,1.2-.72c.48-.21,2.94-.87,3.6-1.08s.81-.36.81-.54.09-2.07.06-2.43A2.24,2.24,0,0,0,4,10.5a2,2,0,0,0-1.17.3c-.15.09-.24.57-.21,1.26a.57.57,0,0,1-.15.3,12.4,12.4,0,0,1-2.1,1.05C.18,13.41,0,13.17,0,13c0-.84.81-1.68,2.31-2.67A6.56,6.56,0,0,1,5.13,9.18,3.15,3.15,0,0,1,7.92,10.65ZM5.76,19.53c.18-.09.33-.63.36-.72,0-.63.06-1.71.06-2.4,0-.09-.12-.24-.21-.24a7.89,7.89,0,0,0-3,.9c-.33.18-.57.39-.57,1.14A1.82,1.82,0,0,0,4.23,20,3.33,3.33,0,0,0,5.76,19.53Z"/><path class="cls-2" d="M20.28,9.3c.12,0,.21-.18.24-.3a50.41,50.41,0,0,0,0-6c0-.18,0-.54-1.38-1.23-.27-.15-.33-.24-.33-.3s.33-.45.51-.48A24.93,24.93,0,0,0,22.53.09,1.06,1.06,0,0,1,23,0a.51.51,0,0,1,.21.48C23,2,22.89,3.57,22.89,12.24c0,5.37.06,6.06.09,6.63.06,1.26.3,1.41.48,1.41s1.29-.18,1.59-.21c.12,0,.18.15.18.18a1.37,1.37,0,0,1-.54.78,22,22,0,0,0-2.79.6,4.24,4.24,0,0,1-1.14.3c-.12,0-.33-.24-.33-.39s.06-.78.06-1.2a.2.2,0,0,0-.18-.21,6,6,0,0,1-3.84,1.47A5.08,5.08,0,0,1,12.75,20a6.07,6.07,0,0,1-1.5-4.14,6.2,6.2,0,0,1,3.21-5.52,8.3,8.3,0,0,1,4-1.14A12.27,12.27,0,0,1,20.28,9.3Zm-5.19,1.92A6,6,0,0,0,13.86,15c0,2.43,1.68,5.13,4.2,5.13a3.19,3.19,0,0,0,2-.66,4.88,4.88,0,0,0,.48-1.86c0-1.74,0-3.66-.09-5a2.82,2.82,0,0,0-.63-1.17,4,4,0,0,0-2.55-1.17A3.25,3.25,0,0,0,15.09,11.22Z"/><path class="cls-2" d="M34.83,9.3c.12,0,.21-.18.24-.3a50.41,50.41,0,0,0,0-6c0-.18,0-.54-1.38-1.23-.27-.15-.33-.24-.33-.3s.33-.45.51-.48A24.93,24.93,0,0,0,37.08.09,1.06,1.06,0,0,1,37.5,0a.51.51,0,0,1,.21.48c-.12,1.5-.27,3.09-.27,11.76,0,5.37.06,6.06.09,6.63.06,1.26.3,1.41.48,1.41.33,0,1.29-.18,1.59-.21.12,0,.18.15.18.18a1.37,1.37,0,0,1-.54.78,22,22,0,0,0-2.79.6,4.24,4.24,0,0,1-1.14.3c-.12,0-.33-.24-.33-.39s.06-.78.06-1.2a.2.2,0,0,0-.18-.21A6,6,0,0,1,31,21.6,5.08,5.08,0,0,1,27.3,20a6.07,6.07,0,0,1-1.5-4.14A6.2,6.2,0,0,1,29,10.35a8.3,8.3,0,0,1,4-1.14A12.27,12.27,0,0,1,34.83,9.3Zm-5.19,1.92A6,6,0,0,0,28.41,15c0,2.43,1.68,5.13,4.2,5.13a3.19,3.19,0,0,0,2-.66,4.88,4.88,0,0,0,.48-1.86c0-1.74,0-3.66-.09-5a2.82,2.82,0,0,0-.63-1.17,4,4,0,0,0-2.55-1.17A3.25,3.25,0,0,0,29.64,11.22Z"/><path class="cls-2" d="M41.13,21.45c-.45,0-.78-.15-.78-.36s.21-.33.72-.45a1.73,1.73,0,0,0,1.2-.87,33.07,33.07,0,0,0,.12-3.42c0-.9,0-3.9,0-4.26,0-.21-.36-.48-1.2-1.08q-.27-.22-.27-.36c0-.21.3-.45.63-.54a31.88,31.88,0,0,0,3.12-1c.15,0,.3.27.3.33,0,.45-.18,4.41-.18,6.12,0,1.53,0,2.73.06,3.78s.63,1,1.38,1.26c.48.15.66.33.66.51s-.39.33-.75.33-1.71-.09-2.34-.09C42.78,21.33,41.67,21.45,41.13,21.45Zm4-16.83a1.67,1.67,0,0,1-1.5,1.53,1.82,1.82,0,0,1-1-.39,1.61,1.61,0,0,1-.48-1.14,1.85,1.85,0,0,1,.39-1.11,1.91,1.91,0,0,1,1.26-.45C44.61,3.06,45.09,4.05,45.09,4.62Z"/><path class="cls-2" d="M57.42,10a1.42,1.42,0,0,1,.45,1c0,.48-.9,1.23-1,1.23a2.54,2.54,0,0,1-1.2-.6c-1-.69-1.5-1.2-2.52-1.2a2.66,2.66,0,0,0-1.71.93,5.32,5.32,0,0,0-1.26,3.54,5.06,5.06,0,0,0,.84,3,4.18,4.18,0,0,0,3.66,1.92,4.7,4.7,0,0,0,2.7-.9c.3-.21.54-.12.54,0a1.33,1.33,0,0,1-.42.9,6.15,6.15,0,0,1-4.38,1.89,5.32,5.32,0,0,1-4.47-2.4,7.18,7.18,0,0,1-1-3.51,6.15,6.15,0,0,1,2.94-5.19,8.41,8.41,0,0,1,4-1.26A5.88,5.88,0,0,1,57.42,10Z"/><path class="cls-2" d="M66.72,9.48c.06,0,.33.15.36.27a11.25,11.25,0,0,1,.09,1.14c0,.3-.57.36-.78.36H63.18a.29.29,0,0,0-.24.21c-.06.78-.09,4.86-.09,6.36a1.85,1.85,0,0,0,.54,1.47,2.54,2.54,0,0,0,1.74.57,3.31,3.31,0,0,0,1.44-.45.94.94,0,0,1,.48-.18s.15.06.15.33a1.26,1.26,0,0,1-.42.78,4.47,4.47,0,0,1-3.24,1.35,3.35,3.35,0,0,1-2.7-1.38,3.54,3.54,0,0,1-.39-2c0-1.11.12-5.61.12-6.66,0-.21-.54-.42-1.17-.57-.24-.09-.39-.27-.39-.39a.41.41,0,0,1,.18-.33,16.93,16.93,0,0,0,2.55-2.13c.36-.39.57-.66.69-.66a.7.7,0,0,1,.45.36V9.36a.32.32,0,0,0,.27.24C63.81,9.6,66.6,9.48,66.72,9.48Z"/><path class="cls-2" d="M81.51,9.45a7,7,0,0,0,.81.18c.69.06,2.88.12,3.48.24a.34.34,0,0,1,.27.33,1.41,1.41,0,0,1-.57,1c-.18,0-1.2,0-2-.06a.2.2,0,0,0-.18.24,4.39,4.39,0,0,1,.24,1.44,4.48,4.48,0,0,1-1.68,3.78,5.59,5.59,0,0,1-3.36,1.14c-.18,0-.87,0-1.08-.06a.47.47,0,0,0-.42.06c-.3.15-.9.72-.9,1A1.53,1.53,0,0,0,77.37,20c1.35.06,4.59.12,5.55.27a3.51,3.51,0,0,1,1.44.72,3.65,3.65,0,0,1,1.29,2.67,5.77,5.77,0,0,1-2.88,4.65,7.93,7.93,0,0,1-4.35,1.29,6.19,6.19,0,0,1-3.78-1.11,3.54,3.54,0,0,1-1.41-2.61A1.94,1.94,0,0,1,74.1,24c.72-.6,1.65-1.23,2-1.56.06-.06,0-.12-.06-.21a4.91,4.91,0,0,1-1.2-.6,2.61,2.61,0,0,1-1-2.22.71.71,0,0,1,.15-.3,22.71,22.71,0,0,0,2.28-1.59c.06-.06,0-.18-.09-.27a4.26,4.26,0,0,1-2.31-3.81,4,4,0,0,1,1.8-3.39,5.19,5.19,0,0,1,3.21-1A9.43,9.43,0,0,1,81.51,9.45Zm.42,18.33a3.22,3.22,0,0,0,1.59-2.7,2.63,2.63,0,0,0-.45-1.53,2.58,2.58,0,0,0-1.59-.9,15.06,15.06,0,0,0-3.06-.18,2.55,2.55,0,0,0-2.85,2.7,2.89,2.89,0,0,0,1.08,2.22,4.61,4.61,0,0,0,2.91.9A5.14,5.14,0,0,0,81.93,27.78ZM77.16,10.53a3.88,3.88,0,0,0-.75,2.67c0,1.56,1,3.75,2.85,3.75a2.25,2.25,0,0,0,1-.42c.69-.48,1-1.89,1-3.15a4.6,4.6,0,0,0-.66-2.28,2.53,2.53,0,0,0-2-1.29A2,2,0,0,0,77.16,10.53Z"/><path class="cls-2" d="M87.09,9.48c.84,0,1.62.12,2.46.12s1.83-.06,2.19-.06.69.09.69.33-.24.39-.72.54c-.81.24-.9.39-.63,1.17.48,1.47,2.28,5.88,2.58,6.36,0,0,.15,0,.24-.15.36-.81,2.16-5.46,2.34-6,.24-.81,0-1.17-1.14-1.44-.36-.09-.66-.33-.66-.45,0-.27.42-.33.78-.33L97,9.6c.45,0,1.17-.12,2-.12.39,0,.63.09.63.3s-.33.39-.69.51c-.63.21-1,.57-1.5,1.53-.9,2.07-2.64,6.36-3.3,8-1,2.67-2.19,5.79-3.15,8.31a1.71,1.71,0,0,1-1.59.87,1.38,1.38,0,0,1-1.41-1.5,1.44,1.44,0,0,1,1.32-1.35c.15,0,.84.06,1.14.06s.36-.21.48-.51c.27-.51,1.2-3.09,1.41-3.78a2,2,0,0,0,.09-1c-.09-.21-.36-.9-.48-1.26-.66-1.8-2.55-6.39-3.48-8.22A1.82,1.82,0,0,0,87,10.32c-.42-.12-.63-.27-.63-.48S86.49,9.48,87.09,9.48Z"/><path class="cls-2" d="M100.5,10.32A27.33,27.33,0,0,0,103,9.06c.12-.09.18-.12.24-.09s.33.24.33.3c0,.42-.12,1.23-.12,1.53,0,.06.06.27.21.18a7.52,7.52,0,0,1,4-1.77,3.83,3.83,0,0,1,2.34.6,6.21,6.21,0,0,1,1,1c0,.12.12.21.24.12a14.51,14.51,0,0,1,2.07-1.29,4.86,4.86,0,0,1,2-.48,3.5,3.5,0,0,1,2.58,1,4.66,4.66,0,0,1,1,2.94c.12,1.41.09,3.78.09,6.12,0,.54.21,1.08,1.23,1.35.39.12.57.27.57.45s-.27.33-.84.33-1.44-.09-2.19-.09c-.93,0-1.47.06-2.16.06s-.75-.18-.75-.39.33-.33.66-.42c.93-.27,1-.6,1-1.71,0-.72,0-4.11-.06-5.1a3.26,3.26,0,0,0-.45-1.92,2.33,2.33,0,0,0-2.19-1,3,3,0,0,0-2.22.87,1.88,1.88,0,0,0-.3.9c0,.21,0,5.85,0,6.51.09,1,.21,1.26,1.26,1.5.33.09.63.27.63.45s-.27.36-.75.36c-.66,0-1.65-.06-2.34-.06s-1.59.06-2.22.06-.78-.24-.78-.39.12-.3.6-.42c1-.24,1.11-.54,1.11-1.62l0-5.73a2.49,2.49,0,0,0-.39-1.59,2.68,2.68,0,0,0-2.19-.9,3.47,3.47,0,0,0-2.28.87,1,1,0,0,0-.3.75c-.06,1-.09,4.56-.09,6.84,0,.57.18,1,1.11,1.32.57.18.78.3.78.54s-.42.33-.81.33c-.12,0-1.38-.06-2.52-.06s-1.62.09-2.28.09c-.45,0-.78-.12-.78-.33s.21-.36.75-.48c1-.24,1.11-.66,1.23-1.95.06-.87.12-3.72.12-5.91A1,1,0,0,0,101,12c-.81-.75-1-1-1-1.11S100.17,10.47,100.5,10.32Z"/></g></g><g id="SENDAGAYA" class="cls-1"><g class="cls-1"><path class="cls-3" d="M30.8,34.92c.06,0,.12.17.13.2s.1.79.1.83,0,.26-.08.26A.29.29,0,0,1,30.7,36a1.75,1.75,0,0,0-.48-.72,1.16,1.16,0,0,0-.73-.24,1.11,1.11,0,0,0-1.12,1.15c0,.68.49,1,1.38,1.58s1.4,1.11,1.4,1.95a1.75,1.75,0,0,1-.84,1.42A2.8,2.8,0,0,1,29,41.5a3.76,3.76,0,0,1-1.34-.26.76.76,0,0,1-.24-.31,9.07,9.07,0,0,1-.15-1c0-.05.1-.19.14-.19s.24.25.38.56a1.57,1.57,0,0,0,1.32.83A1.14,1.14,0,0,0,30.23,40c0-.43-.2-.87-1.22-1.52s-1.48-1.15-1.48-2a1.68,1.68,0,0,1,.56-1.24,2.18,2.18,0,0,1,1.5-.48A6.9,6.9,0,0,1,30.8,34.92Z"/><path class="cls-3" d="M35.44,34.92a7.43,7.43,0,0,0,.92,0s.08.07.09.12c0,.4,0,.77,0,1s-.07.27-.16.27-.14-.14-.16-.25c-.13-.53-.36-.64-.66-.69a11.1,11.1,0,0,0-1.42,0s-.12,0-.14.29,0,2,0,2.26a.08.08,0,0,0,.08.09h.67c.9,0,.92,0,1.1-.49.06-.15.13-.22.19-.22s.1.15.09.24c0,.27,0,.47,0,.71s0,.41,0,.63,0,.28-.12.28-.14-.11-.17-.21c-.14-.46-.2-.5-.76-.53-.32,0-.72,0-1,0,0,0-.09.07-.09.09,0,.23,0,1.13,0,1.54a3.66,3.66,0,0,0,.08.82.39.39,0,0,0,.2.23A5.56,5.56,0,0,0,35,41,4.74,4.74,0,0,0,36,41a1.27,1.27,0,0,0,.81-.74c.12-.23.19-.29.25-.29s.1.17.08.28a7.7,7.7,0,0,1-.36,1.09.37.37,0,0,1-.19.11c-.11,0-1.82-.07-3.27-.07-.55,0-.75.05-1.12.05-.19,0-.31,0-.31-.13s.12-.13.28-.17c.51-.11.69-.2.73-.74s.07-1.5.07-2.74,0-1.46,0-1.75-.13-.56-.56-.65c-.21-.05-.3-.09-.3-.17s.15-.14.29-.14c.47,0,.95,0,1.58,0Z"/><path class="cls-3" d="M37.88,34.89c.23,0,.78,0,1.29,0a.43.43,0,0,1,.22.13c.15.18.4.49.79,1s2.61,2.89,3.25,3.59c.06.06.1,0,.1-.07,0-.31,0-1.4,0-2.72,0-.34,0-.71,0-1s-.09-.45-.63-.6c-.2-.06-.28-.13-.28-.22s.13-.1.27-.1h.82c.38,0,.72,0,1,0s.23,0,.23.11-.06.16-.24.2c-.44.12-.6.23-.63.74,0,.35-.11,2.45-.11,4,0,.42.07,1.2.07,1.38s-.07.21-.15.21-.37-.22-.47-.34-.36-.47-.63-.8c-.94-1.12-2.64-3-3.54-4.1,0,0-.12,0-.12,0,0,.27,0,.55,0,1.33,0,1,0,2.37,0,2.72s.14.59.63.73c.2,0,.25.12.25.18s-.13.14-.32.14-.67-.05-1-.05l-.71,0c-.14,0-.26,0-.26-.11s.1-.15.2-.18c.47-.15.67-.19.71-.94s.19-3.17.19-4c0-.37,0-.47-.08-.5a1.12,1.12,0,0,0-.82-.46c-.11,0-.22-.09-.22-.16S37.67,34.89,37.88,34.89Z"/><path class="cls-3" d="M51.35,35.8a3.26,3.26,0,0,1,.92,2.2,3.39,3.39,0,0,1-1.59,2.88,4.85,4.85,0,0,1-2.37.55c-.41,0-1.32,0-2-.07h-.56c-.22,0-.32-.07-.32-.15s.1-.14.23-.15c.67-.08.72-.26.75-1.08,0-.48,0-.81,0-1.36s0-1.73,0-2.52,0-.79-.63-.88c-.11,0-.23-.08-.23-.15s.1-.14.25-.14h.33c.5,0,1.63-.08,2.46-.08A4.12,4.12,0,0,1,51.35,35.8Zm-3.84-.56c-.07,0-.09.08-.1.13s0,1,0,1.87v1.45c0,.69,0,1.28,0,1.72a.72.72,0,0,0,.22.46,1.76,1.76,0,0,0,.79.26,3,3,0,0,0,1.79-.64,3.23,3.23,0,0,0,1-2.48,3,3,0,0,0-1-2.25,3.52,3.52,0,0,0-2-.61A1.47,1.47,0,0,0,47.51,35.24Z"/><path class="cls-3" d="M56.35,35c.09.27.26.73.44,1.22.53,1.48,1.27,3.43,1.44,3.86.33.81.5.89.93,1,.16,0,.25.09.25.16s-.08.14-.33.14-.86-.05-1.27-.05l-.77,0c-.24,0-.31-.07-.31-.13s.06-.13.25-.16c.46-.09.43-.29.4-.49a14.32,14.32,0,0,0-.55-1.66s-.06-.11-.31-.11c-.66,0-1.45,0-1.65,0,0,0-.09.06-.11.09a7,7,0,0,0-.51,1.68c0,.13.06.3.5.43.17.05.27.11.27.19s-.15.13-.29.13-.42,0-.79,0-.88.05-1,.05-.24-.05-.24-.11.06-.15.23-.2c.5-.16.63-.21.91-.85s1.36-3.5,1.78-4.5l.09-.25a.85.85,0,0,1,.07-.16l.28-.43c.07-.09.12-.13.17-.13S56.28,34.78,56.35,35Zm.26,3.27c-.16-.49-.66-1.94-.76-2.12s-.06-.06-.09,0c-.18.48-.69,1.85-.77,2.15a.06.06,0,0,0,.06.07c.39,0,1.2,0,1.54,0C56.6,38.35,56.62,38.3,56.61,38.26Z"/><path class="cls-3" d="M65.15,35l.4.08s.11.08.12.24.13.74.13,1.12c0,.13,0,.23-.13.23s-.13-.09-.18-.24a2.76,2.76,0,0,0-.39-.7,2.18,2.18,0,0,0-1.6-.63,2.73,2.73,0,0,0-2.65,3,3.53,3.53,0,0,0,.44,1.82,2.77,2.77,0,0,0,2.36,1.36A2,2,0,0,0,64.5,41a1,1,0,0,0,.2-.56c0-.35,0-.89,0-1s-.15-.41-.87-.47c-.15,0-.27-.09-.27-.17s.12-.15.31-.15l1.19,0c.24,0,.63,0,1,0,.17,0,.27.06.27.14s-.11.13-.23.17c-.31.09-.32.2-.36.32a11.82,11.82,0,0,0,0,1.24.34.34,0,0,0,.15.29c.15.09.16.12.16.18s-.05.11-.15.14l-.91.23a6.62,6.62,0,0,1-1.41.19,3.94,3.94,0,0,1-2.66-.9,3.36,3.36,0,0,1-1-2.47,3.21,3.21,0,0,1,1.12-2.49,4,4,0,0,1,2.59-.9A7.44,7.44,0,0,1,65.15,35Z"/><path class="cls-3" d="M70.38,35c.09.27.26.73.44,1.22.53,1.48,1.27,3.43,1.44,3.86.33.81.5.89.93,1,.16,0,.25.09.25.16s-.08.14-.33.14-.86-.05-1.27-.05l-.77,0c-.24,0-.31-.07-.31-.13s.06-.13.25-.16c.46-.09.43-.29.4-.49a14.32,14.32,0,0,0-.55-1.66s-.06-.11-.31-.11c-.66,0-1.45,0-1.65,0,0,0-.09.06-.11.09a7,7,0,0,0-.51,1.68c0,.13.06.3.5.43.17.05.27.11.27.19s-.15.13-.29.13-.42,0-.79,0-.88.05-1,.05-.24-.05-.24-.11.06-.15.23-.2c.5-.16.63-.21.91-.85s1.36-3.5,1.78-4.5l.09-.25a.85.85,0,0,1,.07-.16l.28-.43c.07-.09.12-.13.17-.13S70.31,34.78,70.38,35Zm.26,3.27c-.16-.49-.66-1.94-.76-2.12s-.06-.06-.09,0c-.18.48-.69,1.85-.77,2.15a.06.06,0,0,0,.06.07c.39,0,1.2,0,1.54,0C70.63,38.35,70.65,38.3,70.64,38.26Z"/><path class="cls-3" d="M72.85,34.87c.17,0,.71.05,1.17.05l.81,0c.16,0,.22.05.22.11s-.07.16-.22.19c-.35.08-.3.21-.17.47s.84,1.42,1.28,2.15c0,0,.09,0,.11,0,.25-.37,1-1.59,1.25-2s.12-.48-.29-.58c-.15,0-.23-.13-.23-.2s.13-.09.23-.09h.66c.35,0,1,0,1.13,0s.21,0,.21.1-.1.14-.26.19a1.91,1.91,0,0,0-1.08.77c-.46.58-1,1.47-1.33,2a1.65,1.65,0,0,0-.22.59c0,.57,0,1.78.06,2.1s.14.34.7.48c.19,0,.26.11.26.18s-.1.12-.3.12l-.92,0c-.61,0-1.27.06-1.41.06s-.25,0-.25-.11.07-.15.28-.19c.54-.12.64-.33.65-.47,0-.42,0-1.51,0-2a1.38,1.38,0,0,0-.09-.39c-.17-.36-.78-1.36-1.24-2.08s-.61-.84-1-.94c-.19,0-.28-.12-.28-.19S72.68,34.87,72.85,34.87Z"/><path class="cls-3" d="M81.66,35c.09.27.26.73.44,1.22.53,1.48,1.27,3.43,1.44,3.86.33.81.5.89.93,1,.16,0,.25.09.25.16s-.08.14-.33.14-.86-.05-1.27-.05l-.77,0c-.24,0-.31-.07-.31-.13s.06-.13.25-.16c.46-.09.43-.29.4-.49a14.32,14.32,0,0,0-.55-1.66s-.06-.11-.31-.11c-.66,0-1.45,0-1.65,0,0,0-.09.06-.11.09a7,7,0,0,0-.51,1.68c0,.13.06.3.5.43.17.05.27.11.27.19s-.15.13-.29.13-.42,0-.79,0-.88.05-1,.05-.24-.05-.24-.11.06-.15.23-.2c.5-.16.63-.21.91-.85s1.36-3.5,1.78-4.5l.09-.25a.85.85,0,0,1,.07-.16l.28-.43c.07-.09.12-.13.17-.13S81.59,34.78,81.66,35Zm.26,3.27c-.16-.49-.66-1.94-.76-2.12s-.06-.06-.09,0c-.18.48-.69,1.85-.77,2.15a.06.06,0,0,0,.06.07c.39,0,1.2,0,1.54,0C81.91,38.35,81.93,38.3,81.92,38.26Z"/></g></g></g></g></g></svg>